<svg width="154" height="176" viewBox="0 0 154 176" fill="none" xmlns="http://www.w3.org/2000/svg">
<g clip-path="url(#clip0_542_11641)">
<path d="M41.2456 73.4813C42.8838 73.4813 44.2119 72.1533 44.2119 70.5151C44.2119 68.8769 42.8838 67.5488 41.2456 67.5488C39.6074 67.5488 38.2794 68.8769 38.2794 70.5151C38.2794 72.1533 39.6074 73.4813 41.2456 73.4813Z" fill="#259ECC"/>
<path d="M112.45 33.0878C114.089 33.0878 115.417 31.7597 115.417 30.1215C115.417 28.4833 114.089 27.1553 112.45 27.1553C110.812 27.1553 109.484 28.4833 109.484 30.1215C109.484 31.7597 110.812 33.0878 112.45 33.0878Z" fill="#E30A7D"/>
<path d="M111.256 17.2706C110.89 16.9036 110.455 16.6124 109.976 16.4137C109.497 16.2151 108.983 16.1128 108.464 16.1128C107.946 16.1128 107.432 16.2151 106.953 16.4137C106.474 16.6124 106.039 16.9036 105.672 17.2706L99.7993 23.1364L94.2302 28.7129C93.4879 29.4529 92.4826 29.8684 91.4345 29.8684C90.3864 29.8684 89.3811 29.4529 88.6388 28.7129C87.8989 27.9707 87.4834 26.9653 87.4834 25.9172C87.4834 24.8692 87.8989 23.8638 88.6388 23.1216L91.7163 20.0441C92.0833 19.6777 92.3745 19.2425 92.5732 18.7634C92.7719 18.2843 92.8741 17.7707 92.8741 17.2521C92.8741 16.7335 92.7719 16.2199 92.5732 15.7408C92.3745 15.2618 92.0833 14.8265 91.7163 14.4601C90.974 13.7202 89.9687 13.3047 88.9206 13.3047C87.8725 13.3047 86.8672 13.7202 86.1249 14.4601L46.9927 53.5923C46.2528 54.3346 45.8373 55.3399 45.8373 56.388C45.8373 57.4361 46.2528 58.4414 46.9927 59.1837C47.735 59.9236 48.7403 60.3391 49.7884 60.3391C50.8365 60.3391 51.8418 59.9236 52.5841 59.1837L56.9 54.8604C57.6423 54.1204 58.6476 53.7049 59.6957 53.7049C60.7437 53.7049 61.7491 54.1204 62.4914 54.8604C63.2313 55.6026 63.6468 56.608 63.6468 57.6561C63.6468 58.7041 63.2313 59.7095 62.4914 60.4518L42.8103 80.1624C42.4422 80.529 42.15 80.9647 41.9507 81.4444C41.7514 81.9242 41.6487 82.4386 41.6487 82.9581C41.6487 83.4777 41.7514 83.9921 41.9507 84.4718C42.15 84.9516 42.4422 85.3873 42.8103 85.7538C43.1768 86.1209 43.612 86.412 44.091 86.6107C44.5701 86.8094 45.0837 86.9117 45.6023 86.9117C46.121 86.9117 46.6345 86.8094 47.1136 86.6107C47.5926 86.412 48.0279 86.1209 48.3943 85.7538L55.0238 79.1243C55.7661 78.3843 56.7714 77.9688 57.8195 77.9688C58.8676 77.9688 59.8729 78.3843 60.6152 79.1243C61.3575 79.8642 62.3628 80.2797 63.4109 80.2797C64.459 80.2797 65.4643 79.8642 66.2066 79.1243L72.0575 73.2659C72.7998 72.526 73.8051 72.1105 74.8532 72.1105C75.9013 72.1105 76.9066 72.526 77.6489 73.2659C78.0154 73.6341 78.4511 73.9262 78.9309 74.1256C79.4106 74.3249 79.925 74.4275 80.4446 74.4275C80.9641 74.4275 81.4785 74.3249 81.9583 74.1256C82.438 73.9262 82.8737 73.6341 83.2402 73.2659L111.034 45.45C111.402 45.0834 111.694 44.6477 111.894 44.168C112.093 43.6882 112.196 43.1738 112.196 42.6543C112.196 42.1348 112.093 41.6204 111.894 41.1406C111.694 40.6608 111.402 40.2251 111.034 39.8586C110.668 39.4915 110.232 39.2004 109.753 39.0017C109.274 38.803 108.761 38.7007 108.242 38.7007C107.723 38.7007 107.21 38.803 106.731 39.0017C106.252 39.2004 105.816 39.4915 105.45 39.8586L105.161 40.1478L101.245 44.041C100.879 44.4089 100.444 44.7009 99.9652 44.9002C99.4861 45.0994 98.9723 45.202 98.4534 45.202C97.9345 45.202 97.4207 45.0994 96.9415 44.9002C96.4624 44.7009 96.0273 44.4089 95.6614 44.041C95.2943 43.6746 95.0032 43.2394 94.8045 42.7603C94.6058 42.2812 94.5035 41.7677 94.5035 41.249C94.5035 40.7304 94.6058 40.2168 94.8045 39.7378C95.0032 39.2587 95.2943 38.8235 95.6614 38.457L100.526 33.5924L111.256 22.8546C111.994 22.1126 112.408 21.1089 112.408 20.0626C112.408 19.0164 111.994 18.0126 111.256 17.2706Z" fill="url(#paint0_linear_542_11641)"/>
<path d="M42.9586 116.774C42.9577 115.004 43.3055 113.252 43.9823 111.616C44.6591 109.981 45.6516 108.496 46.903 107.244C48.1543 105.993 49.6401 105 51.2753 104.323C52.9105 103.647 54.6631 103.299 56.4328 103.3C59.1193 103.315 61.7277 104.205 63.8623 105.837C65.9969 107.468 67.5411 109.751 68.2607 112.339L49.032 123.463C49.9687 124.506 51.1112 125.343 52.3874 125.922C53.6637 126.502 55.0461 126.811 56.4476 126.83C57.8545 126.869 59.2537 126.609 60.5526 126.067C61.8514 125.525 63.0203 124.713 63.9819 123.685L66.5477 125.992C63.8484 129.18 59.5919 130.337 56.4476 130.337C54.67 130.337 52.9098 129.986 51.2684 129.303C49.627 128.621 48.1367 127.621 46.8832 126.36C45.6296 125.1 44.6376 123.604 43.9641 121.959C43.2905 120.314 42.9489 118.552 42.9586 116.774ZM64.145 110.968C63.3203 109.675 62.1789 108.614 60.8292 107.886C59.4795 107.158 57.9662 106.787 56.4328 106.807C54.7933 106.806 53.1787 107.209 51.7322 107.981C50.2857 108.753 49.052 109.869 48.1403 111.232C47.2287 112.595 46.6673 114.161 46.5059 115.793C46.3445 117.425 46.5882 119.071 47.2152 120.586L64.145 110.968Z" fill="#231F20"/>
<path d="M77.0482 130.337H73.459V112.339C73.461 109.943 74.414 107.644 76.1089 105.95C77.8037 104.255 80.1018 103.302 82.4987 103.3H84.931V106.844H82.4987C81.0527 106.868 79.6731 107.455 78.6546 108.482C77.6362 109.509 77.0597 110.893 77.0482 112.339V130.337Z" fill="#231F20"/>
<path d="M25.0129 130.337C22.3395 130.356 19.7206 129.582 17.4872 128.112C15.2537 126.643 13.506 124.545 12.4651 122.082C11.4241 119.62 11.1367 116.904 11.639 114.278C12.1413 111.653 13.4109 109.235 15.2872 107.33C17.1635 105.426 19.5624 104.121 22.1804 103.58C24.7985 103.039 27.5182 103.286 29.9957 104.29C32.4733 105.295 34.5974 107.011 36.0996 109.222C37.6018 111.434 38.4145 114.041 38.4351 116.714V130.322L25.0129 130.337ZM34.935 116.714C34.9144 114.744 34.3107 112.824 33.2001 111.196C32.0894 109.569 30.5216 108.307 28.6943 107.569C26.8671 106.832 24.8624 106.652 22.9331 107.053C21.0039 107.453 19.2365 108.417 17.8541 109.821C16.4717 111.225 15.5361 113.007 15.1655 114.942C14.7949 116.877 15.0058 118.879 15.7716 120.695C16.5374 122.51 17.8238 124.058 19.4685 125.143C21.1132 126.229 23.0425 126.802 25.0129 126.792C26.3274 126.786 27.6277 126.521 28.8391 126.01C30.0504 125.5 31.1489 124.755 32.0711 123.818C32.9933 122.881 33.7211 121.771 34.2127 120.552C34.7042 119.333 34.9496 118.029 34.935 116.714Z" fill="#231F20"/>
<path d="M87.2002 138.175C87.2002 132.324 90.1293 129.18 96.1953 129.18H102.447C106.08 129.18 107.853 127.096 107.853 123.73V122.002C106.031 123.667 103.693 124.655 101.23 124.801C98.7673 124.947 96.3288 124.242 94.3235 122.805C92.3182 121.367 90.8679 119.284 90.2156 116.904C89.5633 114.525 89.7486 111.993 90.7406 109.734C91.7326 107.475 93.4708 105.625 95.6642 104.495C97.8575 103.365 100.373 103.023 102.788 103.526C105.204 104.03 107.373 105.348 108.932 107.26C110.491 109.172 111.346 111.563 111.353 114.03V123.73C111.353 129.581 108.431 132.725 102.313 132.725H96.2027C92.7471 132.725 90.7522 134.809 90.7522 138.175V140.704H87.2076L87.2002 138.175ZM100.652 121.297C102.081 121.284 103.474 120.849 104.657 120.045C105.839 119.242 106.757 118.108 107.296 116.784C107.835 115.46 107.97 114.007 107.685 112.606C107.399 111.206 106.706 109.921 105.693 108.914C104.679 107.906 103.39 107.221 101.988 106.945C100.586 106.668 99.1333 106.812 97.813 107.359C96.4926 107.906 95.3635 108.831 94.5676 110.018C93.7718 111.205 93.3448 112.601 93.3403 114.03C93.3598 115.959 94.1378 117.803 95.5061 119.163C96.8744 120.523 98.7229 121.29 100.652 121.297Z" fill="#231F20"/>
<path d="M115.528 116.774C115.537 114.1 116.338 111.488 117.831 109.27C119.324 107.052 121.442 105.326 123.916 104.311C126.39 103.296 129.109 103.038 131.73 103.569C134.351 104.1 136.755 105.396 138.64 107.293C140.524 109.191 141.803 111.605 142.315 114.229C142.827 116.854 142.549 119.571 141.517 122.038C140.484 124.505 138.744 126.61 136.515 128.087C134.286 129.564 131.669 130.347 128.995 130.337C127.218 130.337 125.459 129.986 123.819 129.303C122.179 128.62 120.69 127.619 119.438 126.359C118.186 125.098 117.196 123.602 116.525 121.957C115.854 120.312 115.515 118.55 115.528 116.774ZM139.058 116.774C139.05 114.796 138.458 112.864 137.354 111.223C136.251 109.581 134.686 108.303 132.858 107.549C131.029 106.795 129.018 106.599 127.078 106.986C125.138 107.373 123.357 108.326 121.958 109.724C120.558 111.122 119.604 112.903 119.216 114.843C118.827 116.782 119.022 118.793 119.774 120.623C120.527 122.452 121.804 124.017 123.445 125.122C125.085 126.227 127.017 126.821 128.995 126.829C131.662 126.829 134.221 125.77 136.108 123.885C137.995 121.999 139.056 119.441 139.058 116.774Z" fill="#231F20"/>
<path d="M115.528 116.774C115.527 115.005 115.874 113.253 116.551 111.618C117.227 109.983 118.219 108.498 119.469 107.247C120.72 105.995 122.205 105.003 123.839 104.326C125.474 103.648 127.225 103.3 128.995 103.3V106.807C126.355 106.819 123.827 107.873 121.96 109.739C120.093 111.606 119.04 114.134 119.028 116.774H115.528Z" fill="#E30A7D"/>
<path d="M111.353 114.03C111.353 114.03 111.353 118.828 107.853 122.002C105.883 123.797 103.316 124.793 100.652 124.798V121.298C102.572 121.286 104.409 120.515 105.762 119.153C107.115 117.792 107.875 115.95 107.875 114.03H111.353Z" fill="#259ECC"/>
<g filter="url(#filter0_d_542_11641)">
<rect x="39" y="155" width="76" height="20" rx="4" fill="white"/>
</g>
<path d="M51.9661 169.12C51.3661 169.12 50.8101 169.012 50.2981 168.796C49.7861 168.572 49.3381 168.264 48.9541 167.872C48.5781 167.48 48.2861 167.024 48.0781 166.504C47.8701 165.984 47.7661 165.428 47.7661 164.836C47.7661 164.236 47.8701 163.676 48.0781 163.156C48.2861 162.636 48.5781 162.184 48.9541 161.8C49.3381 161.408 49.7821 161.104 50.2861 160.888C50.7981 160.664 51.3541 160.552 51.9541 160.552C52.6101 160.552 53.1861 160.664 53.6821 160.888C54.1781 161.112 54.6181 161.416 55.0021 161.8L54.2221 162.58C53.9581 162.284 53.6341 162.052 53.2501 161.884C52.8741 161.716 52.4421 161.632 51.9541 161.632C51.5141 161.632 51.1101 161.712 50.7421 161.872C50.3741 162.024 50.0541 162.244 49.7821 162.532C49.5101 162.82 49.2981 163.16 49.1461 163.552C49.0021 163.944 48.9301 164.372 48.9301 164.836C48.9301 165.3 49.0021 165.728 49.1461 166.12C49.2981 166.512 49.5101 166.852 49.7821 167.14C50.0541 167.428 50.3741 167.652 50.7421 167.812C51.1101 167.964 51.5141 168.04 51.9541 168.04C52.4741 168.04 52.9261 167.956 53.3101 167.788C53.6941 167.612 54.0181 167.376 54.2821 167.08L55.0621 167.848C54.6781 168.248 54.2261 168.56 53.7061 168.784C53.1941 169.008 52.6141 169.12 51.9661 169.12ZM58.2526 169.12C57.6926 169.12 57.1886 168.988 56.7406 168.724C56.2926 168.46 55.9366 168.104 55.6726 167.656C55.4086 167.2 55.2766 166.692 55.2766 166.132C55.2766 165.58 55.4086 165.084 55.6726 164.644C55.9366 164.196 56.2926 163.84 56.7406 163.576C57.1886 163.312 57.6926 163.18 58.2526 163.18C58.8046 163.18 59.3046 163.312 59.7526 163.576C60.2086 163.832 60.5686 164.184 60.8326 164.632C61.0966 165.08 61.2286 165.58 61.2286 166.132C61.2286 166.692 61.0966 167.2 60.8326 167.656C60.5686 168.104 60.2086 168.46 59.7526 168.724C59.3046 168.988 58.8046 169.12 58.2526 169.12ZM58.2526 168.076C58.6126 168.076 58.9326 167.992 59.2126 167.824C59.4926 167.656 59.7126 167.428 59.8726 167.14C60.0326 166.844 60.1126 166.508 60.1126 166.132C60.1126 165.764 60.0286 165.436 59.8606 165.148C59.7006 164.86 59.4806 164.636 59.2006 164.476C58.9286 164.308 58.6126 164.224 58.2526 164.224C57.8926 164.224 57.5726 164.308 57.2926 164.476C57.0126 164.636 56.7926 164.86 56.6326 165.148C56.4726 165.436 56.3926 165.764 56.3926 166.132C56.3926 166.508 56.4726 166.844 56.6326 167.14C56.7926 167.428 57.0126 167.656 57.2926 167.824C57.5726 167.992 57.8926 168.076 58.2526 168.076ZM66.0695 169V165.676C66.0695 165.244 65.9335 164.888 65.6615 164.608C65.3895 164.328 65.0375 164.188 64.6055 164.188C64.3175 164.188 64.0615 164.252 63.8375 164.38C63.6135 164.508 63.4375 164.684 63.3095 164.908C63.1815 165.132 63.1175 165.388 63.1175 165.676L62.6735 165.424C62.6735 164.992 62.7695 164.608 62.9615 164.272C63.1535 163.936 63.4215 163.672 63.7655 163.48C64.1095 163.28 64.4975 163.18 64.9295 163.18C65.3615 163.18 65.7415 163.288 66.0695 163.504C66.4055 163.72 66.6695 164.004 66.8615 164.356C67.0535 164.7 67.1495 165.068 67.1495 165.46V169H66.0695ZM62.0375 169V163.3H63.1175V169H62.0375ZM72.2357 169V165.676C72.2357 165.244 72.0997 164.888 71.8277 164.608C71.5557 164.328 71.2037 164.188 70.7717 164.188C70.4837 164.188 70.2277 164.252 70.0037 164.38C69.7797 164.508 69.6037 164.684 69.4757 164.908C69.3477 165.132 69.2837 165.388 69.2837 165.676L68.8397 165.424C68.8397 164.992 68.9357 164.608 69.1277 164.272C69.3197 163.936 69.5877 163.672 69.9317 163.48C70.2757 163.28 70.6637 163.18 71.0957 163.18C71.5277 163.18 71.9077 163.288 72.2357 163.504C72.5717 163.72 72.8357 164.004 73.0277 164.356C73.2197 164.7 73.3157 165.068 73.3157 165.46V169H72.2357ZM68.2037 169V163.3H69.2837V169H68.2037ZM77.0099 169.12C76.4419 169.12 75.9299 168.992 75.4739 168.736C75.0179 168.472 74.6579 168.116 74.3939 167.668C74.1299 167.22 73.9979 166.712 73.9979 166.144C73.9979 165.584 74.1259 165.08 74.3819 164.632C74.6459 164.184 74.9979 163.832 75.4379 163.576C75.8859 163.312 76.3859 163.18 76.9379 163.18C77.4659 163.18 77.9299 163.3 78.3299 163.54C78.7379 163.78 79.0539 164.112 79.2779 164.536C79.5099 164.96 79.6259 165.44 79.6259 165.976C79.6259 166.056 79.6219 166.144 79.6139 166.24C79.6059 166.328 79.5899 166.432 79.5659 166.552H74.7539V165.652H78.9899L78.5939 166C78.5939 165.616 78.5259 165.292 78.3899 165.028C78.2539 164.756 78.0619 164.548 77.8139 164.404C77.5659 164.252 77.2659 164.176 76.9139 164.176C76.5459 164.176 76.2219 164.256 75.9419 164.416C75.6619 164.576 75.4459 164.8 75.2939 165.088C75.1419 165.376 75.0659 165.716 75.0659 166.108C75.0659 166.508 75.1459 166.86 75.3059 167.164C75.4659 167.46 75.6939 167.692 75.9899 167.86C76.2859 168.02 76.6259 168.1 77.0099 168.1C77.3299 168.1 77.6219 168.044 77.8859 167.932C78.1579 167.82 78.3899 167.652 78.5819 167.428L79.2779 168.136C79.0059 168.456 78.6699 168.7 78.2699 168.868C77.8779 169.036 77.4579 169.12 77.0099 169.12ZM82.9995 169.12C82.4395 169.12 81.9315 168.988 81.4755 168.724C81.0275 168.46 80.6715 168.104 80.4075 167.656C80.1515 167.2 80.0235 166.696 80.0235 166.144C80.0235 165.584 80.1515 165.08 80.4075 164.632C80.6715 164.184 81.0275 163.832 81.4755 163.576C81.9315 163.312 82.4395 163.18 82.9995 163.18C83.4395 163.18 83.8475 163.264 84.2235 163.432C84.5995 163.592 84.9235 163.828 85.1955 164.14L84.4755 164.86C84.2995 164.652 84.0835 164.496 83.8275 164.392C83.5795 164.28 83.3035 164.224 82.9995 164.224C82.6395 164.224 82.3195 164.308 82.0395 164.476C81.7595 164.636 81.5395 164.86 81.3795 165.148C81.2195 165.436 81.1395 165.768 81.1395 166.144C81.1395 166.52 81.2195 166.852 81.3795 167.14C81.5395 167.428 81.7595 167.656 82.0395 167.824C82.3195 167.992 82.6395 168.076 82.9995 168.076C83.3035 168.076 83.5795 168.024 83.8275 167.92C84.0835 167.808 84.3035 167.648 84.4875 167.44L85.1955 168.16C84.9315 168.464 84.6075 168.7 84.2235 168.868C83.8475 169.036 83.4395 169.12 82.9995 169.12ZM86.6643 169V160.912H87.7443V169H86.6643ZM85.2603 164.284V163.3H89.1483V164.284H85.2603ZM91.4904 168.316L94.5624 165.076C94.8744 164.756 95.1184 164.48 95.2944 164.248C95.4704 164.008 95.5944 163.788 95.6664 163.588C95.7464 163.388 95.7864 163.18 95.7864 162.964C95.7864 162.54 95.6504 162.208 95.3784 161.968C95.1064 161.728 94.7544 161.608 94.3224 161.608C93.8984 161.608 93.5264 161.712 93.2064 161.92C92.8864 162.12 92.6024 162.432 92.3544 162.856L91.5624 162.196C91.8904 161.652 92.2864 161.244 92.7504 160.972C93.2144 160.692 93.7504 160.552 94.3584 160.552C94.8704 160.552 95.3144 160.652 95.6904 160.852C96.0744 161.052 96.3704 161.332 96.5784 161.692C96.7864 162.052 96.8904 162.472 96.8904 162.952C96.8904 163.296 96.8464 163.604 96.7584 163.876C96.6784 164.148 96.5304 164.428 96.3144 164.716C96.1064 164.996 95.8144 165.332 95.4384 165.724L92.9544 168.28L91.4904 168.316ZM91.4904 169V168.316L92.4504 167.992H97.0824V169H91.4904ZM98.9185 169.12C98.6945 169.12 98.5065 169.044 98.3545 168.892C98.2105 168.732 98.1385 168.544 98.1385 168.328C98.1385 168.104 98.2105 167.92 98.3545 167.776C98.5065 167.624 98.6945 167.548 98.9185 167.548C99.1425 167.548 99.3265 167.624 99.4705 167.776C99.6225 167.92 99.6985 168.104 99.6985 168.328C99.6985 168.544 99.6225 168.732 99.4705 168.892C99.3265 169.044 99.1425 169.12 98.9185 169.12ZM103.883 169.12C103.259 169.12 102.687 168.944 102.167 168.592C101.655 168.24 101.247 167.744 100.943 167.104C100.639 166.456 100.487 165.696 100.487 164.824C100.487 163.952 100.635 163.196 100.931 162.556C101.235 161.916 101.643 161.424 102.155 161.08C102.667 160.728 103.231 160.552 103.847 160.552C104.479 160.552 105.051 160.728 105.563 161.08C106.075 161.424 106.479 161.916 106.775 162.556C107.079 163.196 107.231 163.956 107.231 164.836C107.231 165.708 107.079 166.468 106.775 167.116C106.479 167.756 106.075 168.252 105.563 168.604C105.059 168.948 104.499 169.12 103.883 169.12ZM103.859 168.052C104.299 168.052 104.683 167.932 105.011 167.692C105.347 167.444 105.611 167.08 105.803 166.6C105.995 166.12 106.091 165.528 106.091 164.824C106.091 164.12 105.995 163.532 105.803 163.06C105.611 162.58 105.347 162.22 105.011 161.98C104.675 161.732 104.287 161.608 103.847 161.608C103.415 161.608 103.031 161.732 102.695 161.98C102.359 162.22 102.095 162.58 101.903 163.06C101.719 163.532 101.627 164.12 101.627 164.824C101.627 165.528 101.719 166.12 101.903 166.6C102.095 167.08 102.359 167.444 102.695 167.692C103.031 167.932 103.419 168.052 103.859 168.052Z" fill="#279ECC"/>
</g>
<defs>
<filter id="filter0_d_542_11641" x="29" y="145" width="96" height="40" filterUnits="userSpaceOnUse" color-interpolation-filters="sRGB">
<feFlood flood-opacity="0" result="BackgroundImageFix"/>
<feColorMatrix in="SourceAlpha" type="matrix" values="0 0 0 0 0 0 0 0 0 0 0 0 0 0 0 0 0 0 127 0" result="hardAlpha"/>
<feOffset/>
<feGaussianBlur stdDeviation="5"/>
<feComposite in2="hardAlpha" operator="out"/>
<feColorMatrix type="matrix" values="0 0 0 0 0.517969 0 0 0 0 0.80852 0 0 0 0 0.920833 0 0 0 0.2 0"/>
<feBlend mode="normal" in2="BackgroundImageFix" result="effect1_dropShadow_542_11641"/>
<feBlend mode="normal" in="SourceGraphic" in2="effect1_dropShadow_542_11641" result="shape"/>
</filter>
<linearGradient id="paint0_linear_542_11641" x1="30.1425" y1="61.5651" x2="131.675" y2="30.203" gradientUnits="userSpaceOnUse">
<stop offset="0.2" stop-color="#279ECC"/>
<stop offset="0.81" stop-color="#E4097D"/>
</linearGradient>
<clipPath id="clip0_542_11641">
<rect width="154" height="176" fill="white"/>
</clipPath>
</defs>
</svg>
