<svg width="154" height="176" viewBox="0 0 154 176" fill="none" xmlns="http://www.w3.org/2000/svg">
<g clip-path="url(#clip0_604_15652)">
<path d="M41.2456 73.4813C42.8838 73.4813 44.2119 72.1533 44.2119 70.5151C44.2119 68.8769 42.8838 67.5488 41.2456 67.5488C39.6074 67.5488 38.2794 68.8769 38.2794 70.5151C38.2794 72.1533 39.6074 73.4813 41.2456 73.4813Z" fill="#259ECC"/>
<path d="M112.45 33.0878C114.089 33.0878 115.417 31.7597 115.417 30.1215C115.417 28.4833 114.089 27.1553 112.45 27.1553C110.812 27.1553 109.484 28.4833 109.484 30.1215C109.484 31.7597 110.812 33.0878 112.45 33.0878Z" fill="#E30A7D"/>
<path d="M111.256 17.2706C110.89 16.9036 110.455 16.6124 109.976 16.4137C109.497 16.2151 108.983 16.1128 108.464 16.1128C107.946 16.1128 107.432 16.2151 106.953 16.4137C106.474 16.6124 106.039 16.9036 105.672 17.2706L99.7993 23.1364L94.2302 28.7129C93.4879 29.4529 92.4826 29.8684 91.4345 29.8684C90.3864 29.8684 89.3811 29.4529 88.6388 28.7129C87.8989 27.9707 87.4834 26.9653 87.4834 25.9172C87.4834 24.8692 87.8989 23.8638 88.6388 23.1216L91.7163 20.0441C92.0833 19.6777 92.3745 19.2425 92.5732 18.7634C92.7719 18.2843 92.8741 17.7707 92.8741 17.2521C92.8741 16.7335 92.7719 16.2199 92.5732 15.7408C92.3745 15.2618 92.0833 14.8265 91.7163 14.4601C90.974 13.7202 89.9687 13.3047 88.9206 13.3047C87.8725 13.3047 86.8672 13.7202 86.1249 14.4601L46.9927 53.5923C46.2528 54.3346 45.8373 55.3399 45.8373 56.388C45.8373 57.4361 46.2528 58.4414 46.9927 59.1837C47.735 59.9236 48.7403 60.3391 49.7884 60.3391C50.8365 60.3391 51.8418 59.9236 52.5841 59.1837L56.9 54.8604C57.6423 54.1204 58.6476 53.7049 59.6957 53.7049C60.7437 53.7049 61.7491 54.1204 62.4914 54.8604C63.2313 55.6026 63.6468 56.608 63.6468 57.6561C63.6468 58.7041 63.2313 59.7095 62.4914 60.4518L42.8103 80.1624C42.4422 80.529 42.15 80.9647 41.9507 81.4444C41.7514 81.9242 41.6487 82.4386 41.6487 82.9581C41.6487 83.4777 41.7514 83.9921 41.9507 84.4718C42.15 84.9516 42.4422 85.3873 42.8103 85.7538C43.1768 86.1209 43.612 86.412 44.091 86.6107C44.5701 86.8094 45.0837 86.9117 45.6023 86.9117C46.121 86.9117 46.6345 86.8094 47.1136 86.6107C47.5926 86.412 48.0279 86.1209 48.3943 85.7538L55.0238 79.1243C55.7661 78.3843 56.7714 77.9688 57.8195 77.9688C58.8676 77.9688 59.8729 78.3843 60.6152 79.1243C61.3575 79.8642 62.3628 80.2797 63.4109 80.2797C64.459 80.2797 65.4643 79.8642 66.2066 79.1243L72.0575 73.2659C72.7998 72.526 73.8051 72.1105 74.8532 72.1105C75.9013 72.1105 76.9066 72.526 77.6489 73.2659C78.0154 73.6341 78.4511 73.9262 78.9309 74.1256C79.4106 74.3249 79.925 74.4275 80.4446 74.4275C80.9641 74.4275 81.4785 74.3249 81.9583 74.1256C82.438 73.9262 82.8737 73.6341 83.2402 73.2659L111.034 45.45C111.402 45.0834 111.694 44.6477 111.894 44.168C112.093 43.6882 112.196 43.1738 112.196 42.6543C112.196 42.1348 112.093 41.6204 111.894 41.1406C111.694 40.6608 111.402 40.2251 111.034 39.8586C110.668 39.4915 110.232 39.2004 109.753 39.0017C109.274 38.803 108.761 38.7007 108.242 38.7007C107.723 38.7007 107.21 38.803 106.731 39.0017C106.252 39.2004 105.816 39.4915 105.45 39.8586L105.161 40.1478L101.245 44.041C100.879 44.4089 100.444 44.7009 99.9652 44.9002C99.4861 45.0994 98.9723 45.202 98.4534 45.202C97.9345 45.202 97.4207 45.0994 96.9415 44.9002C96.4624 44.7009 96.0273 44.4089 95.6614 44.041C95.2943 43.6746 95.0032 43.2394 94.8045 42.7603C94.6058 42.2812 94.5035 41.7677 94.5035 41.249C94.5035 40.7304 94.6058 40.2168 94.8045 39.7378C95.0032 39.2587 95.2943 38.8235 95.6614 38.457L100.526 33.5924L111.256 22.8546C111.994 22.1126 112.408 21.1089 112.408 20.0626C112.408 19.0164 111.994 18.0126 111.256 17.2706Z" fill="url(#paint0_linear_604_15652)"/>
<path d="M42.9586 116.774C42.9577 115.004 43.3055 113.252 43.9823 111.616C44.6591 109.981 45.6516 108.496 46.903 107.244C48.1543 105.993 49.6401 105 51.2753 104.323C52.9105 103.647 54.6631 103.299 56.4328 103.3C59.1193 103.315 61.7277 104.205 63.8623 105.837C65.9969 107.468 67.5411 109.751 68.2607 112.339L49.032 123.463C49.9687 124.506 51.1112 125.343 52.3874 125.922C53.6637 126.502 55.0461 126.811 56.4476 126.83C57.8545 126.869 59.2537 126.609 60.5526 126.067C61.8514 125.525 63.0203 124.713 63.9819 123.685L66.5477 125.992C63.8484 129.18 59.5919 130.337 56.4476 130.337C54.67 130.337 52.9098 129.986 51.2684 129.303C49.627 128.621 48.1367 127.621 46.8832 126.36C45.6296 125.1 44.6376 123.604 43.9641 121.959C43.2905 120.314 42.9489 118.552 42.9586 116.774ZM64.145 110.968C63.3203 109.675 62.1789 108.614 60.8292 107.886C59.4795 107.158 57.9662 106.787 56.4328 106.807C54.7933 106.806 53.1787 107.209 51.7322 107.981C50.2857 108.753 49.052 109.869 48.1403 111.232C47.2287 112.595 46.6673 114.161 46.5059 115.793C46.3445 117.425 46.5882 119.071 47.2152 120.586L64.145 110.968Z" fill="#231F20"/>
<path d="M77.0482 130.337H73.459V112.339C73.461 109.943 74.414 107.644 76.1089 105.95C77.8037 104.255 80.1018 103.302 82.4987 103.3H84.931V106.844H82.4987C81.0527 106.868 79.6731 107.455 78.6546 108.482C77.6362 109.509 77.0597 110.893 77.0482 112.339V130.337Z" fill="#231F20"/>
<path d="M25.0129 130.337C22.3395 130.356 19.7206 129.582 17.4872 128.112C15.2537 126.643 13.506 124.545 12.4651 122.082C11.4241 119.62 11.1367 116.904 11.639 114.278C12.1413 111.653 13.4109 109.235 15.2872 107.33C17.1635 105.426 19.5624 104.121 22.1804 103.58C24.7985 103.039 27.5182 103.286 29.9957 104.29C32.4733 105.295 34.5974 107.011 36.0996 109.222C37.6018 111.434 38.4145 114.041 38.4351 116.714V130.322L25.0129 130.337ZM34.935 116.714C34.9144 114.744 34.3107 112.824 33.2001 111.196C32.0894 109.569 30.5216 108.307 28.6943 107.569C26.8671 106.832 24.8624 106.652 22.9331 107.053C21.0039 107.453 19.2365 108.417 17.8541 109.821C16.4717 111.225 15.5361 113.007 15.1655 114.942C14.7949 116.877 15.0058 118.879 15.7716 120.695C16.5374 122.51 17.8238 124.058 19.4685 125.143C21.1132 126.229 23.0425 126.802 25.0129 126.792C26.3274 126.786 27.6277 126.521 28.8391 126.01C30.0504 125.5 31.1489 124.755 32.0711 123.818C32.9933 122.881 33.7211 121.771 34.2127 120.552C34.7042 119.333 34.9496 118.029 34.935 116.714Z" fill="#231F20"/>
<path d="M87.2002 138.175C87.2002 132.324 90.1293 129.18 96.1953 129.18H102.447C106.08 129.18 107.853 127.096 107.853 123.73V122.002C106.031 123.667 103.693 124.655 101.23 124.801C98.7673 124.947 96.3288 124.242 94.3235 122.805C92.3182 121.367 90.8679 119.284 90.2156 116.904C89.5633 114.525 89.7486 111.993 90.7406 109.734C91.7326 107.475 93.4708 105.625 95.6642 104.495C97.8575 103.365 100.373 103.023 102.788 103.526C105.204 104.03 107.373 105.348 108.932 107.26C110.491 109.172 111.346 111.563 111.353 114.03V123.73C111.353 129.581 108.431 132.725 102.313 132.725H96.2027C92.7471 132.725 90.7522 134.809 90.7522 138.175V140.704H87.2076L87.2002 138.175ZM100.652 121.297C102.081 121.284 103.474 120.849 104.657 120.045C105.839 119.242 106.757 118.108 107.296 116.784C107.835 115.46 107.97 114.007 107.685 112.606C107.399 111.206 106.706 109.921 105.693 108.914C104.679 107.906 103.39 107.221 101.988 106.945C100.586 106.668 99.1333 106.812 97.813 107.359C96.4926 107.906 95.3635 108.831 94.5676 110.018C93.7718 111.205 93.3448 112.601 93.3403 114.03C93.3598 115.959 94.1378 117.803 95.5061 119.163C96.8744 120.523 98.7229 121.29 100.652 121.297Z" fill="#231F20"/>
<path d="M115.528 116.774C115.537 114.1 116.338 111.488 117.831 109.27C119.324 107.052 121.442 105.326 123.916 104.311C126.39 103.296 129.109 103.038 131.73 103.569C134.351 104.1 136.755 105.396 138.64 107.293C140.524 109.191 141.803 111.605 142.315 114.229C142.827 116.854 142.549 119.571 141.517 122.038C140.484 124.505 138.744 126.61 136.515 128.087C134.286 129.564 131.669 130.347 128.995 130.337C127.218 130.337 125.459 129.986 123.819 129.303C122.179 128.62 120.69 127.619 119.438 126.359C118.186 125.098 117.196 123.602 116.525 121.957C115.854 120.312 115.515 118.55 115.528 116.774ZM139.058 116.774C139.05 114.796 138.458 112.864 137.354 111.223C136.251 109.581 134.686 108.303 132.858 107.549C131.029 106.795 129.018 106.599 127.078 106.986C125.138 107.373 123.357 108.326 121.958 109.724C120.558 111.122 119.604 112.903 119.216 114.843C118.827 116.782 119.022 118.793 119.774 120.623C120.527 122.452 121.804 124.017 123.445 125.122C125.085 126.227 127.017 126.821 128.995 126.829C131.662 126.829 134.221 125.77 136.108 123.885C137.995 121.999 139.056 119.441 139.058 116.774Z" fill="#231F20"/>
<path d="M115.528 116.774C115.527 115.005 115.874 113.253 116.551 111.618C117.227 109.983 118.219 108.498 119.469 107.247C120.72 105.995 122.205 105.003 123.839 104.326C125.474 103.648 127.225 103.3 128.995 103.3V106.807C126.355 106.819 123.827 107.873 121.96 109.739C120.093 111.606 119.04 114.134 119.028 116.774H115.528Z" fill="#E30A7D"/>
<path d="M111.353 114.03C111.353 114.03 111.353 118.828 107.853 122.002C105.883 123.797 103.316 124.793 100.652 124.798V121.298C102.572 121.286 104.409 120.515 105.762 119.153C107.115 117.792 107.875 115.95 107.875 114.03H111.353Z" fill="#259ECC"/>
<g filter="url(#filter0_d_604_15652)">
<rect x="39" y="155" width="76" height="20" rx="4" fill="white"/>
</g>
<path d="M52.1536 169.12C51.5536 169.12 50.9976 169.012 50.4856 168.796C49.9736 168.572 49.5256 168.264 49.1416 167.872C48.7656 167.48 48.4736 167.024 48.2656 166.504C48.0576 165.984 47.9536 165.428 47.9536 164.836C47.9536 164.236 48.0576 163.676 48.2656 163.156C48.4736 162.636 48.7656 162.184 49.1416 161.8C49.5256 161.408 49.9696 161.104 50.4736 160.888C50.9856 160.664 51.5416 160.552 52.1416 160.552C52.7976 160.552 53.3736 160.664 53.8696 160.888C54.3656 161.112 54.8056 161.416 55.1896 161.8L54.4096 162.58C54.1456 162.284 53.8216 162.052 53.4376 161.884C53.0616 161.716 52.6296 161.632 52.1416 161.632C51.7016 161.632 51.2976 161.712 50.9296 161.872C50.5616 162.024 50.2416 162.244 49.9696 162.532C49.6976 162.82 49.4856 163.16 49.3336 163.552C49.1896 163.944 49.1176 164.372 49.1176 164.836C49.1176 165.3 49.1896 165.728 49.3336 166.12C49.4856 166.512 49.6976 166.852 49.9696 167.14C50.2416 167.428 50.5616 167.652 50.9296 167.812C51.2976 167.964 51.7016 168.04 52.1416 168.04C52.6616 168.04 53.1136 167.956 53.4976 167.788C53.8816 167.612 54.2056 167.376 54.4696 167.08L55.2496 167.848C54.8656 168.248 54.4136 168.56 53.8936 168.784C53.3816 169.008 52.8016 169.12 52.1536 169.12ZM58.4401 169.12C57.8801 169.12 57.3761 168.988 56.9281 168.724C56.4801 168.46 56.1241 168.104 55.8601 167.656C55.5961 167.2 55.4641 166.692 55.4641 166.132C55.4641 165.58 55.5961 165.084 55.8601 164.644C56.1241 164.196 56.4801 163.84 56.9281 163.576C57.3761 163.312 57.8801 163.18 58.4401 163.18C58.9921 163.18 59.4921 163.312 59.9401 163.576C60.3961 163.832 60.7561 164.184 61.0201 164.632C61.2841 165.08 61.4161 165.58 61.4161 166.132C61.4161 166.692 61.2841 167.2 61.0201 167.656C60.7561 168.104 60.3961 168.46 59.9401 168.724C59.4921 168.988 58.9921 169.12 58.4401 169.12ZM58.4401 168.076C58.8001 168.076 59.1201 167.992 59.4001 167.824C59.6801 167.656 59.9001 167.428 60.0601 167.14C60.2201 166.844 60.3001 166.508 60.3001 166.132C60.3001 165.764 60.2161 165.436 60.0481 165.148C59.8881 164.86 59.6681 164.636 59.3881 164.476C59.1161 164.308 58.8001 164.224 58.4401 164.224C58.0801 164.224 57.7601 164.308 57.4801 164.476C57.2001 164.636 56.9801 164.86 56.8201 165.148C56.6601 165.436 56.5801 165.764 56.5801 166.132C56.5801 166.508 56.6601 166.844 56.8201 167.14C56.9801 167.428 57.2001 167.656 57.4801 167.824C57.7601 167.992 58.0801 168.076 58.4401 168.076ZM66.257 169V165.676C66.257 165.244 66.121 164.888 65.849 164.608C65.577 164.328 65.225 164.188 64.793 164.188C64.505 164.188 64.249 164.252 64.025 164.38C63.801 164.508 63.625 164.684 63.497 164.908C63.369 165.132 63.305 165.388 63.305 165.676L62.861 165.424C62.861 164.992 62.957 164.608 63.149 164.272C63.341 163.936 63.609 163.672 63.953 163.48C64.297 163.28 64.685 163.18 65.117 163.18C65.549 163.18 65.929 163.288 66.257 163.504C66.593 163.72 66.857 164.004 67.049 164.356C67.241 164.7 67.337 165.068 67.337 165.46V169H66.257ZM62.225 169V163.3H63.305V169H62.225ZM72.4232 169V165.676C72.4232 165.244 72.2872 164.888 72.0152 164.608C71.7432 164.328 71.3912 164.188 70.9592 164.188C70.6712 164.188 70.4152 164.252 70.1912 164.38C69.9672 164.508 69.7912 164.684 69.6632 164.908C69.5352 165.132 69.4712 165.388 69.4712 165.676L69.0272 165.424C69.0272 164.992 69.1232 164.608 69.3152 164.272C69.5072 163.936 69.7752 163.672 70.1192 163.48C70.4632 163.28 70.8512 163.18 71.2832 163.18C71.7152 163.18 72.0952 163.288 72.4232 163.504C72.7592 163.72 73.0232 164.004 73.2152 164.356C73.4072 164.7 73.5032 165.068 73.5032 165.46V169H72.4232ZM68.3912 169V163.3H69.4712V169H68.3912ZM77.1974 169.12C76.6294 169.12 76.1174 168.992 75.6614 168.736C75.2054 168.472 74.8454 168.116 74.5814 167.668C74.3174 167.22 74.1854 166.712 74.1854 166.144C74.1854 165.584 74.3134 165.08 74.5694 164.632C74.8334 164.184 75.1854 163.832 75.6254 163.576C76.0734 163.312 76.5734 163.18 77.1254 163.18C77.6534 163.18 78.1174 163.3 78.5174 163.54C78.9254 163.78 79.2414 164.112 79.4654 164.536C79.6974 164.96 79.8134 165.44 79.8134 165.976C79.8134 166.056 79.8094 166.144 79.8014 166.24C79.7934 166.328 79.7774 166.432 79.7534 166.552H74.9414V165.652H79.1774L78.7814 166C78.7814 165.616 78.7134 165.292 78.5774 165.028C78.4414 164.756 78.2494 164.548 78.0014 164.404C77.7534 164.252 77.4534 164.176 77.1014 164.176C76.7334 164.176 76.4094 164.256 76.1294 164.416C75.8494 164.576 75.6334 164.8 75.4814 165.088C75.3294 165.376 75.2534 165.716 75.2534 166.108C75.2534 166.508 75.3334 166.86 75.4934 167.164C75.6534 167.46 75.8814 167.692 76.1774 167.86C76.4734 168.02 76.8134 168.1 77.1974 168.1C77.5174 168.1 77.8094 168.044 78.0734 167.932C78.3454 167.82 78.5774 167.652 78.7694 167.428L79.4654 168.136C79.1934 168.456 78.8574 168.7 78.4574 168.868C78.0654 169.036 77.6454 169.12 77.1974 169.12ZM83.187 169.12C82.627 169.12 82.119 168.988 81.663 168.724C81.215 168.46 80.859 168.104 80.595 167.656C80.339 167.2 80.211 166.696 80.211 166.144C80.211 165.584 80.339 165.08 80.595 164.632C80.859 164.184 81.215 163.832 81.663 163.576C82.119 163.312 82.627 163.18 83.187 163.18C83.627 163.18 84.035 163.264 84.411 163.432C84.787 163.592 85.111 163.828 85.383 164.14L84.663 164.86C84.487 164.652 84.271 164.496 84.015 164.392C83.767 164.28 83.491 164.224 83.187 164.224C82.827 164.224 82.507 164.308 82.227 164.476C81.947 164.636 81.727 164.86 81.567 165.148C81.407 165.436 81.327 165.768 81.327 166.144C81.327 166.52 81.407 166.852 81.567 167.14C81.727 167.428 81.947 167.656 82.227 167.824C82.507 167.992 82.827 168.076 83.187 168.076C83.491 168.076 83.767 168.024 84.015 167.92C84.271 167.808 84.491 167.648 84.675 167.44L85.383 168.16C85.119 168.464 84.795 168.7 84.411 168.868C84.035 169.036 83.627 169.12 83.187 169.12ZM86.8518 169V160.912H87.9318V169H86.8518ZM85.4478 164.284V163.3H89.3358V164.284H85.4478ZM94.2459 169.12C93.7019 169.12 93.2059 169.02 92.7579 168.82C92.3179 168.612 91.9459 168.312 91.6419 167.92L92.4099 167.152C92.5939 167.432 92.8459 167.656 93.1659 167.824C93.4859 167.984 93.8419 168.064 94.2339 168.064C94.6019 168.064 94.9179 167.996 95.1819 167.86C95.4539 167.716 95.6659 167.516 95.8179 167.26C95.9779 167.004 96.0579 166.708 96.0579 166.372C96.0579 166.028 95.9779 165.732 95.8179 165.484C95.6659 165.228 95.4499 165.032 95.1699 164.896C94.8899 164.76 94.5579 164.692 94.1739 164.692C94.0299 164.692 93.8859 164.704 93.7419 164.728C93.5979 164.744 93.4579 164.772 93.3219 164.812L93.8019 164.164C93.9539 164.092 94.1179 164.036 94.2939 163.996C94.4699 163.956 94.6459 163.936 94.8219 163.936C95.2699 163.936 95.6699 164.04 96.0219 164.248C96.3819 164.456 96.6659 164.748 96.8739 165.124C97.0899 165.5 97.1979 165.936 97.1979 166.432C97.1979 166.96 97.0699 167.428 96.8139 167.836C96.5659 168.236 96.2219 168.552 95.7819 168.784C95.3419 169.008 94.8299 169.12 94.2459 169.12ZM93.3219 164.812V164.128L95.7579 161.356L97.1019 161.344L94.5939 164.188L93.3219 164.812ZM92.0379 161.68V160.672H97.1019V161.344L96.1179 161.68H92.0379ZM98.731 169.12C98.507 169.12 98.319 169.044 98.167 168.892C98.023 168.732 97.951 168.544 97.951 168.328C97.951 168.104 98.023 167.92 98.167 167.776C98.319 167.624 98.507 167.548 98.731 167.548C98.955 167.548 99.139 167.624 99.283 167.776C99.435 167.92 99.511 168.104 99.511 168.328C99.511 168.544 99.435 168.732 99.283 168.892C99.139 169.044 98.955 169.12 98.731 169.12ZM103.695 169.12C103.071 169.12 102.499 168.944 101.979 168.592C101.467 168.24 101.059 167.744 100.755 167.104C100.451 166.456 100.299 165.696 100.299 164.824C100.299 163.952 100.447 163.196 100.743 162.556C101.047 161.916 101.455 161.424 101.967 161.08C102.479 160.728 103.043 160.552 103.659 160.552C104.291 160.552 104.863 160.728 105.375 161.08C105.887 161.424 106.291 161.916 106.587 162.556C106.891 163.196 107.043 163.956 107.043 164.836C107.043 165.708 106.891 166.468 106.587 167.116C106.291 167.756 105.887 168.252 105.375 168.604C104.871 168.948 104.311 169.12 103.695 169.12ZM103.671 168.052C104.111 168.052 104.495 167.932 104.823 167.692C105.159 167.444 105.423 167.08 105.615 166.6C105.807 166.12 105.903 165.528 105.903 164.824C105.903 164.12 105.807 163.532 105.615 163.06C105.423 162.58 105.159 162.22 104.823 161.98C104.487 161.732 104.099 161.608 103.659 161.608C103.227 161.608 102.843 161.732 102.507 161.98C102.171 162.22 101.907 162.58 101.715 163.06C101.531 163.532 101.439 164.12 101.439 164.824C101.439 165.528 101.531 166.12 101.715 166.6C101.907 167.08 102.171 167.444 102.507 167.692C102.843 167.932 103.231 168.052 103.671 168.052Z" fill="#279ECC"/>
</g>
<defs>
<filter id="filter0_d_604_15652" x="29" y="145" width="96" height="40" filterUnits="userSpaceOnUse" color-interpolation-filters="sRGB">
<feFlood flood-opacity="0" result="BackgroundImageFix"/>
<feColorMatrix in="SourceAlpha" type="matrix" values="0 0 0 0 0 0 0 0 0 0 0 0 0 0 0 0 0 0 127 0" result="hardAlpha"/>
<feOffset/>
<feGaussianBlur stdDeviation="5"/>
<feComposite in2="hardAlpha" operator="out"/>
<feColorMatrix type="matrix" values="0 0 0 0 0.517969 0 0 0 0 0.80852 0 0 0 0 0.920833 0 0 0 0.2 0"/>
<feBlend mode="normal" in2="BackgroundImageFix" result="effect1_dropShadow_604_15652"/>
<feBlend mode="normal" in="SourceGraphic" in2="effect1_dropShadow_604_15652" result="shape"/>
</filter>
<linearGradient id="paint0_linear_604_15652" x1="30.1425" y1="61.5651" x2="131.675" y2="30.203" gradientUnits="userSpaceOnUse">
<stop offset="0.2" stop-color="#279ECC"/>
<stop offset="0.81" stop-color="#E4097D"/>
</linearGradient>
<clipPath id="clip0_604_15652">
<rect width="154" height="176" fill="white"/>
</clipPath>
</defs>
</svg>
