<svg width="24" height="24" viewBox="0 0 24 24" fill="none" xmlns="http://www.w3.org/2000/svg">
<path d="M23.19 2.01559C22.7224 1.54792 21.9039 1.54792 21.4363 2.01559L19.5656 3.88628L17.8118 5.64005C17.3441 6.10773 16.5257 6.10773 16.058 5.64005C15.5904 5.17238 15.5904 4.35396 16.058 3.88628L16.8765 2.83402C17.3441 2.36635 17.3441 1.54792 16.8765 1.08025C16.4088 0.612574 15.5904 0.612574 15.1227 1.08025L2.72936 13.4736C2.26169 13.9412 2.26169 14.7597 2.72936 15.2273C3.19703 15.695 4.01546 15.695 4.48313 15.2273L5.88615 13.8243C6.35382 13.3567 7.17225 13.3567 7.63992 13.8243C8.10759 14.292 8.10759 15.1104 7.63992 15.5781L1.32634 21.8917C0.858668 22.3594 0.858668 23.1778 1.32634 23.6455C1.79401 24.1131 2.61244 24.1131 3.08011 23.6455L5.18464 21.6578C5.65231 21.1902 6.47074 21.1902 6.93841 21.6578C7.40608 22.1255 8.22451 22.1255 8.69218 21.6578L10.5629 19.7872C11.0305 19.3195 11.849 19.3195 12.3166 19.7872C12.7843 20.2548 13.6027 20.2548 14.0704 19.7872L22.9562 10.9014C23.4239 10.4337 23.4239 9.61527 22.9562 9.1476C22.4885 8.67993 21.6701 8.67993 21.2024 9.1476L21.0855 9.26452L19.7994 10.5506C19.3317 11.0183 18.5133 11.0183 18.0456 10.5506C17.578 10.0829 17.578 9.26452 18.0456 8.79685L19.5656 7.27691L22.9562 3.88628C23.6577 3.30169 23.6577 2.48326 23.19 2.01559Z" fill="url(#paint0_linear_1246_2645)"/>
<defs>
<linearGradient id="paint0_linear_1246_2645" x1="-2.6611" y1="16.0801" x2="29.6584" y2="6.09547" gradientUnits="userSpaceOnUse">
<stop offset="0.2045" stop-color="#249DCB"/>
<stop offset="0.8137" stop-color="#E3097D"/>
</linearGradient>
</defs>
</svg>
