<svg width="36" height="36" viewBox="0 0 36 36" fill="none" xmlns="http://www.w3.org/2000/svg">
<g filter="url(#filter0_d_816_14349)">
<rect x="6" y="6" width="24" height="24" rx="4" fill="white"/>
<rect x="6.5" y="6.5" width="23" height="23" rx="3.5" stroke="#FFF1F9"/>
</g>
<path d="M12.8571 24.2222C12.8571 25.2 13.6286 26 14.5714 26H21.4286C22.3714 26 23.1429 25.2 23.1429 24.2222V15.3333C23.1429 14.3556 22.3714 13.5556 21.4286 13.5556H14.5714C13.6286 13.5556 12.8571 14.3556 12.8571 15.3333V24.2222ZM23.1429 10.8889H21L20.3914 10.2578C20.2371 10.0978 20.0143 10 19.7914 10H16.2086C15.9857 10 15.7629 10.0978 15.6086 10.2578L15 10.8889H12.8571C12.3857 10.8889 12 11.2889 12 11.7778C12 12.2667 12.3857 12.6667 12.8571 12.6667H23.1429C23.6143 12.6667 24 12.2667 24 11.7778C24 11.2889 23.6143 10.8889 23.1429 10.8889Z" fill="#E4097D"/>
<rect x="15.5" y="15" width="1" height="9" rx="0.5" fill="white"/>
<rect x="17.5" y="15" width="1" height="9" rx="0.5" fill="white"/>
<rect x="19.5" y="15" width="1" height="9" rx="0.5" fill="white"/>
<defs>
<filter id="filter0_d_816_14349" x="0" y="0" width="36" height="36" filterUnits="userSpaceOnUse" color-interpolation-filters="sRGB">
<feFlood flood-opacity="0" result="BackgroundImageFix"/>
<feColorMatrix in="SourceAlpha" type="matrix" values="0 0 0 0 0 0 0 0 0 0 0 0 0 0 0 0 0 0 127 0" result="hardAlpha"/>
<feOffset/>
<feGaussianBlur stdDeviation="3"/>
<feComposite in2="hardAlpha" operator="out"/>
<feColorMatrix type="matrix" values="0 0 0 0 0.691667 0 0 0 0 0.435174 0 0 0 0 0.581741 0 0 0 0.25 0"/>
<feBlend mode="normal" in2="BackgroundImageFix" result="effect1_dropShadow_816_14349"/>
<feBlend mode="normal" in="SourceGraphic" in2="effect1_dropShadow_816_14349" result="shape"/>
</filter>
</defs>
</svg>
