<svg width="100" height="100" viewBox="0 0 152 164" fill="none" xmlns="http://www.w3.org/2000/svg">
<g filter="url(#filter0_d_503_10380)">
<g filter="url(#filter1_i_503_10380)">
<circle cx="76" cy="60.8576" r="52.8889" fill="url(#paint0_linear_503_10380)"/>
</g>
<g filter="url(#filter2_i_503_10380)">
<circle cx="75.9999" cy="60.8573" r="47.5556" fill="url(#paint1_linear_503_10380)"/>
</g>
<circle cx="76" cy="60.8574" r="58" stroke="url(#paint2_linear_503_10380)" stroke-width="4"/>
<g filter="url(#filter3_i_503_10380)">
<path d="M52.6814 76.6018C53.7363 76.6018 54.5915 75.7336 54.5915 74.6627C54.5915 73.5918 53.7363 72.7236 52.6814 72.7236C51.6264 72.7236 50.7712 73.5918 50.7712 74.6627C50.7712 75.7336 51.6264 76.6018 52.6814 76.6018Z" fill="#99A6C7"/>
<path d="M98.5344 50.1965C99.5894 50.1965 100.445 49.3284 100.445 48.2574C100.445 47.1865 99.5894 46.3184 98.5344 46.3184C97.4795 46.3184 96.6243 47.1865 96.6243 48.2574C96.6243 49.3284 97.4795 50.1965 98.5344 50.1965Z" fill="#CBA0CB"/>
<path d="M97.7655 39.8563C97.5295 39.6163 97.2493 39.426 96.9408 39.2961C96.6323 39.1662 96.3015 39.0994 95.9676 39.0994C95.6336 39.0994 95.3029 39.1662 94.9944 39.2961C94.6859 39.426 94.4056 39.6163 94.1696 39.8563L90.3876 43.6908L86.8013 47.3363C86.3233 47.82 85.6759 48.0916 85.001 48.0916C84.326 48.0916 83.6786 47.82 83.2006 47.3363C82.7241 46.8511 82.4566 46.1939 82.4566 45.5087C82.4566 44.8236 82.7241 44.1664 83.2006 43.6811L85.1824 41.6693C85.4188 41.4298 85.6063 41.1453 85.7342 40.8321C85.8622 40.5189 85.928 40.1832 85.928 39.8442C85.928 39.5051 85.8622 39.1694 85.7342 38.8562C85.6063 38.543 85.4188 38.2585 85.1824 38.019C84.7044 37.5353 84.057 37.2637 83.3821 37.2637C82.7072 37.2637 82.0598 37.5353 81.5818 38.019L56.3822 63.6004C55.9058 64.0856 55.6382 64.7428 55.6382 65.428C55.6382 66.1131 55.9058 66.7703 56.3822 67.2556C56.8602 67.7393 57.5076 68.0109 58.1825 68.0109C58.8575 68.0109 59.5049 67.7393 59.9829 67.2556L62.7621 64.4293C63.2401 63.9456 63.8875 63.674 64.5624 63.674C65.2373 63.674 65.8847 63.9456 66.3627 64.4293C66.8392 64.9146 67.1068 65.5718 67.1068 66.2569C67.1068 66.9421 66.8392 67.5993 66.3627 68.0845L53.6889 80.9697C53.4519 81.2093 53.2637 81.4942 53.1354 81.8078C53.007 82.1214 52.9409 82.4577 52.9409 82.7973C52.9409 83.1369 53.007 83.4732 53.1354 83.7868C53.2637 84.1005 53.4519 84.3853 53.6889 84.6249C53.9249 84.8648 54.2052 85.0552 54.5137 85.1851C54.8222 85.315 55.1529 85.3818 55.4869 85.3818C55.8208 85.3818 56.1515 85.315 56.46 85.1851C56.7686 85.0552 57.0488 84.8648 57.2848 84.6249L61.5539 80.291C62.0319 79.8073 62.6793 79.5357 63.3543 79.5357C64.0292 79.5357 64.6766 79.8073 65.1546 80.291C65.6326 80.7747 66.28 81.0464 66.9549 81.0464C67.6298 81.0464 68.2772 80.7747 68.7552 80.291L72.5229 76.4614C73.0009 75.9776 73.6483 75.706 74.3232 75.706C74.9982 75.706 75.6456 75.9776 76.1236 76.4614C76.3596 76.702 76.6402 76.893 76.9491 77.0233C77.2581 77.1536 77.5893 77.2207 77.9239 77.2207C78.2584 77.2207 78.5897 77.1536 78.8986 77.0233C79.2076 76.893 79.4881 76.702 79.7242 76.4614L97.6222 58.2776C97.8593 58.038 98.0474 57.7532 98.1758 57.4395C98.3041 57.1259 98.3702 56.7896 98.3702 56.45C98.3702 56.1104 98.3041 55.7741 98.1758 55.4605C98.0474 55.1468 97.8593 54.862 97.6222 54.6224C97.3863 54.3825 97.106 54.1921 96.7975 54.0622C96.489 53.9324 96.1583 53.8655 95.8243 53.8655C95.4903 53.8655 95.1596 53.9324 94.8511 54.0622C94.5426 54.1921 94.2623 54.3825 94.0264 54.6224L93.8401 54.8115L91.3187 57.3565C91.0831 57.597 90.803 57.7879 90.4944 57.9182C90.1859 58.0484 89.855 58.1155 89.5208 58.1155C89.1867 58.1155 88.8558 58.0484 88.5472 57.9182C88.2387 57.7879 87.9585 57.597 87.7229 57.3565C87.4865 57.117 87.299 56.8325 87.1711 56.5193C87.0431 56.2061 86.9773 55.8704 86.9773 55.5314C86.9773 55.1923 87.0431 54.8566 87.1711 54.5434C87.299 54.2302 87.4865 53.9457 87.7229 53.7062L90.8555 50.5261L97.7655 43.5066C98.2405 43.0216 98.5071 42.3654 98.5071 41.6815C98.5071 40.9975 98.2405 40.3413 97.7655 39.8563Z" fill="url(#paint3_linear_503_10380)"/>
</g>
</g>
<defs>
<filter id="filter0_d_503_10380" x="0" y="0.857422" width="152" height="163" filterUnits="userSpaceOnUse" color-interpolation-filters="sRGB">
<feFlood flood-opacity="0" result="BackgroundImageFix"/>
<feColorMatrix in="SourceAlpha" type="matrix" values="0 0 0 0 0 0 0 0 0 0 0 0 0 0 0 0 0 0 127 0" result="hardAlpha"/>
<feOffset dy="27"/>
<feGaussianBlur stdDeviation="8"/>
<feComposite in2="hardAlpha" operator="out"/>
<feColorMatrix type="matrix" values="0 0 0 0 0.645747 0 0 0 0 0.662266 0 0 0 0 0.720833 0 0 0 0.17 0"/>
<feBlend mode="normal" in2="BackgroundImageFix" result="effect1_dropShadow_503_10380"/>
<feBlend mode="normal" in="SourceGraphic" in2="effect1_dropShadow_503_10380" result="shape"/>
</filter>
<filter id="filter1_i_503_10380" x="23.1111" y="7.96875" width="107.778" height="106.777" filterUnits="userSpaceOnUse" color-interpolation-filters="sRGB">
<feFlood flood-opacity="0" result="BackgroundImageFix"/>
<feBlend mode="normal" in="SourceGraphic" in2="BackgroundImageFix" result="shape"/>
<feColorMatrix in="SourceAlpha" type="matrix" values="0 0 0 0 0 0 0 0 0 0 0 0 0 0 0 0 0 0 127 0" result="hardAlpha"/>
<feOffset dx="2" dy="1"/>
<feGaussianBlur stdDeviation="2"/>
<feComposite in2="hardAlpha" operator="arithmetic" k2="-1" k3="1"/>
<feColorMatrix type="matrix" values="0 0 0 0 0.875 0 0 0 0 0.875 0 0 0 0 0.875 0 0 0 0.5 0"/>
<feBlend mode="multiply" in2="shape" result="effect1_innerShadow_503_10380"/>
</filter>
<filter id="filter2_i_503_10380" x="27.4443" y="13.3018" width="96.1111" height="95.1113" filterUnits="userSpaceOnUse" color-interpolation-filters="sRGB">
<feFlood flood-opacity="0" result="BackgroundImageFix"/>
<feBlend mode="normal" in="SourceGraphic" in2="BackgroundImageFix" result="shape"/>
<feColorMatrix in="SourceAlpha" type="matrix" values="0 0 0 0 0 0 0 0 0 0 0 0 0 0 0 0 0 0 127 0" result="hardAlpha"/>
<feOffset dx="-1"/>
<feGaussianBlur stdDeviation="2"/>
<feComposite in2="hardAlpha" operator="arithmetic" k2="-1" k3="1"/>
<feColorMatrix type="matrix" values="0 0 0 0 0.875 0 0 0 0 0.875 0 0 0 0 0.875 0 0 0 0.5 0"/>
<feBlend mode="multiply" in2="shape" result="effect1_innerShadow_503_10380"/>
</filter>
<filter id="filter3_i_503_10380" x="50.7712" y="37.2637" width="51.6733" height="50.1182" filterUnits="userSpaceOnUse" color-interpolation-filters="sRGB">
<feFlood flood-opacity="0" result="BackgroundImageFix"/>
<feBlend mode="normal" in="SourceGraphic" in2="BackgroundImageFix" result="shape"/>
<feColorMatrix in="SourceAlpha" type="matrix" values="0 0 0 0 0 0 0 0 0 0 0 0 0 0 0 0 0 0 127 0" result="hardAlpha"/>
<feOffset dx="2" dy="2"/>
<feGaussianBlur stdDeviation="1"/>
<feComposite in2="hardAlpha" operator="arithmetic" k2="-1" k3="1"/>
<feColorMatrix type="matrix" values="0 0 0 0 0 0 0 0 0 0 0 0 0 0 0 0 0 0 0.15 0"/>
<feBlend mode="normal" in2="shape" result="effect1_innerShadow_503_10380"/>
</filter>
<linearGradient id="paint0_linear_503_10380" x1="23.1111" y1="7.96875" x2="131.19" y2="111.341" gradientUnits="userSpaceOnUse">
<stop stop-color="#ECF8FD"/>
<stop offset="1" stop-color="#FFF1F9"/>
</linearGradient>
<linearGradient id="paint1_linear_503_10380" x1="28.4443" y1="13.3018" x2="125.624" y2="106.25" gradientUnits="userSpaceOnUse">
<stop stop-color="#ECF8FD"/>
<stop offset="1" stop-color="#FFF1F9"/>
</linearGradient>
<linearGradient id="paint2_linear_503_10380" x1="16" y1="0.857422" x2="138.61" y2="118.129" gradientUnits="userSpaceOnUse">
<stop stop-color="#84CEEB"/>
<stop offset="1" stop-color="#F894C8"/>
</linearGradient>
<linearGradient id="paint3_linear_503_10380" x1="52.9409" y1="37.2637" x2="101.914" y2="81.6202" gradientUnits="userSpaceOnUse">
<stop stop-color="#84CEEB"/>
<stop offset="1" stop-color="#F894C8"/>
</linearGradient>
</defs>
</svg>
