<svg width="193" height="28" viewBox="0 0 193 28" fill="none" xmlns="http://www.w3.org/2000/svg">
<path d="M127.589 22.14C126.889 22.14 126.241 22.014 125.643 21.762C125.046 21.5007 124.523 21.1413 124.075 20.684C123.637 20.2267 123.296 19.6947 123.053 19.088C122.811 18.4813 122.689 17.8327 122.689 17.142C122.689 16.442 122.811 15.7887 123.053 15.182C123.296 14.5753 123.637 14.048 124.075 13.6C124.523 13.1427 125.041 12.788 125.629 12.536C126.227 12.2747 126.875 12.144 127.575 12.144C128.341 12.144 129.013 12.2747 129.591 12.536C130.17 12.7973 130.683 13.152 131.131 13.6L130.221 14.51C129.913 14.1647 129.535 13.894 129.087 13.698C128.649 13.502 128.145 13.404 127.575 13.404C127.062 13.404 126.591 13.4973 126.161 13.684C125.732 13.8613 125.359 14.118 125.041 14.454C124.724 14.79 124.477 15.1867 124.299 15.644C124.131 16.1013 124.047 16.6007 124.047 17.142C124.047 17.6833 124.131 18.1827 124.299 18.64C124.477 19.0973 124.724 19.494 125.041 19.83C125.359 20.166 125.732 20.4273 126.161 20.614C126.591 20.7913 127.062 20.88 127.575 20.88C128.182 20.88 128.709 20.782 129.157 20.586C129.605 20.3807 129.983 20.1053 130.291 19.76L131.201 20.656C130.753 21.1227 130.226 21.4867 129.619 21.748C129.022 22.0093 128.345 22.14 127.589 22.14ZM134.991 22.14C134.338 22.14 133.75 21.986 133.227 21.678C132.705 21.37 132.289 20.9547 131.981 20.432C131.673 19.9 131.519 19.3073 131.519 18.654C131.519 18.01 131.673 17.4313 131.981 16.918C132.289 16.3953 132.705 15.98 133.227 15.672C133.75 15.364 134.338 15.21 134.991 15.21C135.635 15.21 136.219 15.364 136.741 15.672C137.273 15.9707 137.693 16.3813 138.001 16.904C138.309 17.4267 138.463 18.01 138.463 18.654C138.463 19.3073 138.309 19.9 138.001 20.432C137.693 20.9547 137.273 21.37 136.741 21.678C136.219 21.986 135.635 22.14 134.991 22.14ZM134.991 20.922C135.411 20.922 135.785 20.824 136.111 20.628C136.438 20.432 136.695 20.166 136.881 19.83C137.068 19.4847 137.161 19.0927 137.161 18.654C137.161 18.2247 137.063 17.842 136.867 17.506C136.681 17.17 136.424 16.9087 136.097 16.722C135.78 16.526 135.411 16.428 134.991 16.428C134.571 16.428 134.198 16.526 133.871 16.722C133.545 16.9087 133.288 17.17 133.101 17.506C132.915 17.842 132.821 18.2247 132.821 18.654C132.821 19.0927 132.915 19.4847 133.101 19.83C133.288 20.166 133.545 20.432 133.871 20.628C134.198 20.824 134.571 20.922 134.991 20.922ZM144.179 22V18.122C144.179 17.618 144.02 17.2027 143.703 16.876C143.386 16.5493 142.975 16.386 142.471 16.386C142.135 16.386 141.836 16.4607 141.575 16.61C141.314 16.7593 141.108 16.9647 140.959 17.226C140.81 17.4873 140.735 17.786 140.735 18.122L140.217 17.828C140.217 17.324 140.329 16.876 140.553 16.484C140.777 16.092 141.09 15.784 141.491 15.56C141.892 15.3267 142.345 15.21 142.849 15.21C143.353 15.21 143.796 15.336 144.179 15.588C144.571 15.84 144.879 16.1713 145.103 16.582C145.327 16.9833 145.439 17.4127 145.439 17.87V22H144.179ZM139.475 22V15.35H140.735V22H139.475ZM151.441 22V18.122C151.441 17.618 151.282 17.2027 150.965 16.876C150.648 16.5493 150.237 16.386 149.733 16.386C149.397 16.386 149.098 16.4607 148.837 16.61C148.576 16.7593 148.37 16.9647 148.221 17.226C148.072 17.4873 147.997 17.786 147.997 18.122L147.479 17.828C147.479 17.324 147.591 16.876 147.815 16.484C148.039 16.092 148.352 15.784 148.753 15.56C149.154 15.3267 149.607 15.21 150.111 15.21C150.615 15.21 151.058 15.336 151.441 15.588C151.833 15.84 152.141 16.1713 152.365 16.582C152.589 16.9833 152.701 17.4127 152.701 17.87V22H151.441ZM146.737 22V15.35H147.997V22H146.737ZM157.079 22.14C156.416 22.14 155.819 21.9907 155.287 21.692C154.755 21.384 154.335 20.9687 154.027 20.446C153.719 19.9233 153.565 19.3307 153.565 18.668C153.565 18.0147 153.714 17.4267 154.013 16.904C154.321 16.3813 154.732 15.9707 155.245 15.672C155.768 15.364 156.351 15.21 156.995 15.21C157.611 15.21 158.152 15.35 158.619 15.63C159.095 15.91 159.464 16.2973 159.725 16.792C159.996 17.2867 160.131 17.8467 160.131 18.472C160.131 18.5653 160.126 18.668 160.117 18.78C160.108 18.8827 160.089 19.004 160.061 19.144H154.447V18.094H159.389L158.927 18.5C158.927 18.052 158.848 17.674 158.689 17.366C158.53 17.0487 158.306 16.806 158.017 16.638C157.728 16.4607 157.378 16.372 156.967 16.372C156.538 16.372 156.16 16.4653 155.833 16.652C155.506 16.8387 155.254 17.1 155.077 17.436C154.9 17.772 154.811 18.1687 154.811 18.626C154.811 19.0927 154.904 19.5033 155.091 19.858C155.278 20.2033 155.544 20.474 155.889 20.67C156.234 20.8567 156.631 20.95 157.079 20.95C157.452 20.95 157.793 20.8847 158.101 20.754C158.418 20.6233 158.689 20.4273 158.913 20.166L159.725 20.992C159.408 21.3653 159.016 21.65 158.549 21.846C158.092 22.042 157.602 22.14 157.079 22.14ZM164.135 22.14C163.482 22.14 162.889 21.986 162.357 21.678C161.834 21.37 161.419 20.9547 161.111 20.432C160.812 19.9 160.663 19.312 160.663 18.668C160.663 18.0147 160.812 17.4267 161.111 16.904C161.419 16.3813 161.834 15.9707 162.357 15.672C162.889 15.364 163.482 15.21 164.135 15.21C164.648 15.21 165.124 15.308 165.563 15.504C166.002 15.6907 166.38 15.966 166.697 16.33L165.857 17.17C165.652 16.9273 165.4 16.7453 165.101 16.624C164.812 16.4933 164.49 16.428 164.135 16.428C163.715 16.428 163.342 16.526 163.015 16.722C162.688 16.9087 162.432 17.17 162.245 17.506C162.058 17.842 161.965 18.2293 161.965 18.668C161.965 19.1067 162.058 19.494 162.245 19.83C162.432 20.166 162.688 20.432 163.015 20.628C163.342 20.824 163.715 20.922 164.135 20.922C164.49 20.922 164.812 20.8613 165.101 20.74C165.4 20.6093 165.656 20.4227 165.871 20.18L166.697 21.02C166.389 21.3747 166.011 21.65 165.563 21.846C165.124 22.042 164.648 22.14 164.135 22.14ZM168.478 22V12.564H169.738V22H168.478ZM166.84 16.498V15.35H171.376V16.498H166.84ZM177.241 22.14C176.606 22.14 176.028 22.0233 175.505 21.79C174.992 21.5473 174.558 21.1973 174.203 20.74L175.099 19.844C175.314 20.1707 175.608 20.432 175.981 20.628C176.354 20.8147 176.77 20.908 177.227 20.908C177.656 20.908 178.025 20.8287 178.333 20.67C178.65 20.502 178.898 20.2687 179.075 19.97C179.262 19.6713 179.355 19.326 179.355 18.934C179.355 18.5327 179.262 18.1873 179.075 17.898C178.898 17.5993 178.646 17.3707 178.319 17.212C177.992 17.0533 177.605 16.974 177.157 16.974C176.989 16.974 176.821 16.988 176.653 17.016C176.485 17.0347 176.322 17.0673 176.163 17.114L176.723 16.358C176.9 16.274 177.092 16.2087 177.297 16.162C177.502 16.1153 177.708 16.092 177.913 16.092C178.436 16.092 178.902 16.2133 179.313 16.456C179.733 16.6987 180.064 17.0393 180.307 17.478C180.559 17.9167 180.685 18.4253 180.685 19.004C180.685 19.62 180.536 20.166 180.237 20.642C179.948 21.1087 179.546 21.4773 179.033 21.748C178.52 22.0093 177.922 22.14 177.241 22.14ZM176.163 17.114V16.316L179.005 13.082L180.573 13.068L177.647 16.386L176.163 17.114ZM174.665 13.46V12.284H180.573V13.068L179.425 13.46H174.665ZM182.542 22.14C182.28 22.14 182.061 22.0513 181.884 21.874C181.716 21.6873 181.632 21.468 181.632 21.216C181.632 20.9547 181.716 20.74 181.884 20.572C182.061 20.3947 182.28 20.306 182.542 20.306C182.803 20.306 183.018 20.3947 183.186 20.572C183.363 20.74 183.452 20.9547 183.452 21.216C183.452 21.468 183.363 21.6873 183.186 21.874C183.018 22.0513 182.803 22.14 182.542 22.14ZM188.401 22.14C187.673 22.14 187.006 21.9347 186.399 21.524C185.802 21.1133 185.326 20.5347 184.971 19.788C184.617 19.032 184.439 18.1453 184.439 17.128C184.439 16.1107 184.612 15.2287 184.957 14.482C185.312 13.7353 185.788 13.1613 186.385 12.76C186.983 12.3493 187.641 12.144 188.359 12.144C189.097 12.144 189.764 12.3493 190.361 12.76C190.959 13.1613 191.43 13.7353 191.775 14.482C192.13 15.2287 192.307 16.1153 192.307 17.142C192.307 18.1593 192.13 19.046 191.775 19.802C191.43 20.5487 190.959 21.1273 190.361 21.538C189.773 21.9393 189.12 22.14 188.401 22.14ZM188.373 20.894C188.887 20.894 189.335 20.754 189.717 20.474C190.109 20.1847 190.417 19.76 190.641 19.2C190.865 18.64 190.977 17.9493 190.977 17.128C190.977 16.3067 190.865 15.6207 190.641 15.07C190.417 14.51 190.109 14.09 189.717 13.81C189.325 13.5207 188.873 13.376 188.359 13.376C187.855 13.376 187.407 13.5207 187.015 13.81C186.623 14.09 186.315 14.51 186.091 15.07C185.877 15.6207 185.769 16.3067 185.769 17.128C185.769 17.9493 185.877 18.64 186.091 19.2C186.315 19.76 186.623 20.1847 187.015 20.474C187.407 20.754 187.86 20.894 188.373 20.894Z" fill="#279ECC"/>
<path d="M53.1574 13.2853C53.1568 12.1971 53.3679 11.1194 53.7787 10.1139C54.1896 9.10845 54.792 8.19485 55.5516 7.42537C56.3112 6.65589 57.2131 6.04562 58.2057 5.62946C59.1983 5.2133 60.2622 4.9994 61.3364 5C62.9672 5.00909 64.5505 5.55674 65.8463 6.55987C67.142 7.563 68.0794 8.96687 68.5162 10.5585L56.844 17.3983C57.4126 18.0394 58.1061 18.5544 58.8808 18.9107C59.6555 19.267 60.4947 19.4569 61.3454 19.4685C62.1994 19.4927 63.0488 19.3328 63.8372 18.9995C64.6256 18.6662 65.3352 18.1671 65.9188 17.5351L67.4763 18.9532C65.8378 20.914 63.254 21.6253 61.3454 21.6253C60.2664 21.6253 59.1979 21.4093 58.2015 20.9896C57.2052 20.5699 56.3005 19.9549 55.5396 19.1798C54.7787 18.4048 54.1765 17.485 53.7677 16.4734C53.3588 15.4618 53.1514 14.3784 53.1574 13.2853ZM66.0179 9.71491C65.5172 8.9199 64.8244 8.26762 64.0051 7.81993C63.1858 7.37225 62.2672 7.144 61.3364 7.15683C60.3412 7.15595 59.3611 7.40378 58.4831 7.87838C57.605 8.35298 56.8561 9.03968 56.3027 9.87761C55.7493 10.7155 55.4086 11.6788 55.3106 12.6821C55.2127 13.6853 55.3605 14.6976 55.7412 15.6291L66.0179 9.71491Z" fill="#231F20"/>
<path d="M73.8506 21.6253H71.6719V10.5585C71.6731 9.08465 72.2516 7.67154 73.2804 6.62938C74.3092 5.58722 75.7042 5.00121 77.1591 5H78.6356V7.17962H77.1591C76.2813 7.19388 75.4439 7.55529 74.8257 8.18665C74.2075 8.81801 73.8575 9.66925 73.8506 10.5585V21.6253Z" fill="#231F20"/>
<path d="M42.2644 21.6251C40.6416 21.6368 39.0519 21.1608 37.6961 20.2573C36.3404 19.3539 35.2795 18.0635 34.6476 16.5494C34.0158 15.0352 33.8412 13.3653 34.1462 11.7507C34.4511 10.1361 35.2217 8.64936 36.3607 7.47839C37.4997 6.30742 38.9558 5.50484 40.545 5.17209C42.1342 4.83933 43.7851 4.99136 45.2891 5.60895C46.793 6.22654 48.0824 7.28197 48.9942 8.64179C49.906 10.0016 50.3994 11.6048 50.4119 13.2486V21.616L42.2644 21.6251ZM48.2872 13.2486C48.2748 12.037 47.9083 10.8564 47.2341 9.85557C46.56 8.85476 45.6082 8.07867 44.4991 7.62522C43.3899 7.17176 42.173 7.06126 41.0019 7.30766C39.8308 7.55406 38.758 8.14632 37.9189 9.00971C37.0797 9.8731 36.5118 10.9689 36.2868 12.1589C36.0619 13.3489 36.1899 14.5798 36.6547 15.6961C37.1196 16.8125 37.9005 17.7644 38.8988 18.4317C39.8972 19.0989 41.0683 19.4517 42.2644 19.4455C43.0623 19.4419 43.8516 19.2785 44.5869 18.9646C45.3223 18.6508 45.989 18.1927 46.5488 17.6167C47.1086 17.0407 47.5504 16.3582 47.8488 15.6086C48.1472 14.8589 48.2962 14.0568 48.2872 13.2486Z" fill="#231F20"/>
<path d="M80.0137 26.4449C80.0137 22.8472 81.7917 20.9138 85.4739 20.9138H89.2686C91.4743 20.9138 92.5501 19.6325 92.5501 17.5623V16.4999C91.4446 17.5235 90.0254 18.1312 88.5303 18.2211C87.0352 18.311 85.5549 17.8777 84.3377 16.9937C83.1204 16.1097 82.24 14.8288 81.8441 13.3655C81.4481 11.9023 81.5606 10.3456 82.1628 8.95644C82.7649 7.56723 83.8201 6.42986 85.1515 5.7349C86.4829 5.03995 88.0096 4.82963 89.4759 5.13919C90.9422 5.44875 92.2588 6.25938 93.2053 7.43525C94.1518 8.61112 94.6706 10.0808 94.6748 11.598V17.5623C94.6748 21.16 92.9012 23.0934 89.1876 23.0934H85.4784C83.3807 23.0934 82.1699 24.3748 82.1699 26.4449V27.9999H80.0182L80.0137 26.4449ZM88.1792 16.0667C89.0467 16.0586 89.8924 15.7908 90.61 15.297C91.3276 14.8031 91.885 14.1054 92.2121 13.2914C92.5391 12.4775 92.6212 11.5838 92.4481 10.7227C92.2749 9.86159 91.8543 9.0716 91.239 8.45211C90.6237 7.83262 89.8413 7.41131 88.9902 7.24117C88.1391 7.07103 87.2573 7.15967 86.4558 7.49594C85.6544 7.83221 84.9689 8.40108 84.4859 9.13098C84.0028 9.86089 83.7436 10.7192 83.7409 11.598C83.7527 12.7842 84.2249 13.918 85.0555 14.7542C85.8861 15.5905 87.0082 16.0619 88.1792 16.0667Z" fill="#231F20"/>
<path d="M97.2082 13.2852C97.2136 11.641 97.7002 10.0352 98.6065 8.67115C99.5129 7.30707 100.798 6.24591 102.3 5.62189C103.802 4.99787 105.452 4.83903 107.043 5.16546C108.634 5.49188 110.094 6.2889 111.237 7.45572C112.381 8.62254 113.158 10.1067 113.468 11.7206C113.779 13.3344 113.611 15.0054 112.984 16.5222C112.357 18.0389 111.301 19.3334 109.948 20.2417C108.595 21.1501 107.006 21.6315 105.383 21.6252C104.304 21.6253 103.237 21.4091 102.241 20.9893C101.245 20.5694 100.342 19.9542 99.5817 19.179C98.8219 18.4037 98.2209 17.4839 97.8136 16.4723C97.4062 15.4608 97.2005 14.3776 97.2082 13.2852ZM111.491 13.2852C111.487 12.069 111.127 10.8813 110.457 9.87179C109.787 8.86232 108.838 8.07627 107.728 7.6127C106.618 7.14913 105.397 7.0288 104.22 7.26685C103.042 7.50491 101.961 8.09072 101.111 8.95044C100.262 9.81015 99.6828 10.9053 99.4469 12.0979C99.2111 13.2904 99.329 14.5271 99.7858 15.6519C100.243 16.7767 101.018 17.7393 102.014 18.4185C103.01 19.0977 104.182 19.463 105.383 19.4684C107.002 19.4684 108.555 18.8171 109.701 17.6577C110.846 16.4982 111.49 14.9255 111.491 13.2852Z" fill="#231F20"/>
<path d="M97.209 13.2853C97.2084 12.1975 97.4194 11.1202 97.8299 10.115C98.2405 9.1098 98.8425 8.1964 99.6017 7.42698C100.361 6.65756 101.262 6.0472 102.254 5.63077C103.246 5.21434 104.31 5 105.384 5V7.15682C103.781 7.16402 102.247 7.81201 101.113 8.95976C99.9804 10.1075 99.3408 11.6621 99.3337 13.2853H97.209Z" fill="#E30A7D"/>
<path d="M94.6742 11.5977C94.6742 11.5977 94.6742 14.5479 92.5496 16.4995C91.3543 17.6031 89.796 18.2159 88.1787 18.2186V16.0663C89.344 16.0591 90.4591 15.5851 91.2806 14.7478C92.1021 13.9106 92.5631 12.7781 92.5631 11.5977H94.6742Z" fill="#259ECC"/>
<path d="M1.11389 22.8905C1.72907 22.8905 2.22778 22.3853 2.22778 21.7621C2.22778 21.139 1.72907 20.6338 1.11389 20.6338C0.498705 20.6338 0 21.139 0 21.7621C0 22.3853 0.498705 22.8905 1.11389 22.8905Z" fill="#259ECC"/>
<path d="M27.8531 7.52526C28.4683 7.52526 28.967 7.02008 28.967 6.39691C28.967 5.77374 28.4683 5.26855 27.8531 5.26855C27.238 5.26855 26.7393 5.77374 26.7393 6.39691C26.7393 7.02008 27.238 7.52526 27.8531 7.52526Z" fill="#E30A7D"/>
<path d="M27.4048 1.50864C27.2672 1.36902 27.1038 1.25825 26.9239 1.18268C26.744 1.1071 26.5511 1.0682 26.3564 1.0682C26.1616 1.0682 25.9688 1.1071 25.7889 1.18268C25.6089 1.25825 25.4455 1.36902 25.3079 1.50864L23.1024 3.73997L21.0111 5.86127C20.7324 6.14274 20.3548 6.3008 19.9613 6.3008C19.5677 6.3008 19.1901 6.14274 18.9114 5.86127C18.6335 5.57891 18.4775 5.19649 18.4775 4.7978C18.4775 4.39911 18.6335 4.01669 18.9114 3.73433L20.0671 2.56366C20.2049 2.42427 20.3143 2.25872 20.3889 2.07648C20.4635 1.89424 20.5019 1.69888 20.5019 1.50159C20.5019 1.3043 20.4635 1.10895 20.3889 0.926706C20.3143 0.744465 20.2049 0.578911 20.0671 0.439524C19.7883 0.158053 19.4108 0 19.0172 0C18.6237 0 18.2461 0.158053 17.9674 0.439524L3.27241 15.3254C2.99455 15.6077 2.83852 15.9901 2.83852 16.3888C2.83852 16.7875 2.99455 17.17 3.27241 17.4523C3.55115 17.7338 3.92867 17.8918 4.32225 17.8918C4.71583 17.8918 5.09335 17.7338 5.37209 17.4523L6.9928 15.8077C7.27154 15.5263 7.64906 15.3682 8.04264 15.3682C8.43621 15.3682 8.81374 15.5263 9.09248 15.8077C9.37034 16.0901 9.52637 16.4725 9.52637 16.8712C9.52637 17.2699 9.37034 17.6523 9.09248 17.9347L1.70183 25.4326C1.56357 25.572 1.45387 25.7378 1.37902 25.9203C1.30416 26.1028 1.26562 26.2984 1.26562 26.4961C1.26562 26.6937 1.30416 26.8894 1.37902 27.0719C1.45387 27.2544 1.56357 27.4201 1.70183 27.5595C1.83943 27.6992 2.00286 27.8099 2.18276 27.8855C2.36267 27.9611 2.55552 28 2.75028 28C2.94504 28 3.13788 27.9611 3.31779 27.8855C3.49769 27.8099 3.66112 27.6992 3.79872 27.5595L6.28826 25.0377C6.567 24.7562 6.94452 24.5981 7.3381 24.5981C7.73168 24.5981 8.10921 24.7562 8.38795 25.0377C8.66669 25.3191 9.04421 25.4772 9.43778 25.4772C9.83136 25.4772 10.2089 25.3191 10.4876 25.0377L12.6848 22.8092C12.9635 22.5277 13.341 22.3696 13.7346 22.3696C14.1282 22.3696 14.5057 22.5277 14.7845 22.8092C14.9221 22.9492 15.0857 23.0603 15.2659 23.1362C15.446 23.212 15.6392 23.251 15.8343 23.251C16.0294 23.251 16.2226 23.212 16.4027 23.1362C16.5829 23.0603 16.7465 22.9492 16.8841 22.8092L27.3213 12.228C27.4595 12.0886 27.5692 11.9229 27.6441 11.7404C27.7189 11.5579 27.7575 11.3622 27.7575 11.1645C27.7575 10.9669 27.7189 10.7712 27.6441 10.5887C27.5692 10.4062 27.4595 10.2405 27.3213 10.1011C27.1837 9.96144 27.0202 9.85068 26.8403 9.7751C26.6604 9.69952 26.4676 9.66062 26.2728 9.66062C26.0781 9.66062 25.8852 9.69952 25.7053 9.7751C25.5254 9.85068 25.362 9.96144 25.2244 10.1011L25.1158 10.2111L23.6454 11.6921C23.508 11.832 23.3447 11.9431 23.1647 12.0189C22.9848 12.0947 22.7919 12.1337 22.597 12.1337C22.4021 12.1337 22.2092 12.0947 22.0293 12.0189C21.8493 11.9431 21.686 11.832 21.5485 11.6921C21.4107 11.5527 21.3014 11.3871 21.2268 11.2049C21.1521 11.0226 21.1137 10.8273 21.1137 10.63C21.1137 10.4327 21.1521 10.2373 21.2268 10.0551C21.3014 9.87286 21.4107 9.70731 21.5485 9.56792L23.3753 7.71742L27.4048 3.63277C27.6818 3.35053 27.8373 2.96871 27.8373 2.57071C27.8373 2.17271 27.6818 1.79088 27.4048 1.50864Z" fill="url(#paint0_linear_557_11790)"/>
<defs>
<linearGradient id="paint0_linear_557_11790" x1="-3.05522" y1="18.3582" x2="35.1572" y2="6.70616" gradientUnits="userSpaceOnUse">
<stop offset="0.2" stop-color="#279ECC"/>
<stop offset="0.81" stop-color="#E4097D"/>
</linearGradient>
</defs>
</svg>
