<svg width="193" height="28" viewBox="0 0 193 28" fill="none" xmlns="http://www.w3.org/2000/svg">
<path d="M126.87 22.14C126.17 22.14 125.522 22.014 124.924 21.762C124.327 21.5007 123.804 21.1413 123.356 20.684C122.918 20.2267 122.577 19.6947 122.334 19.088C122.092 18.4813 121.97 17.8327 121.97 17.142C121.97 16.442 122.092 15.7887 122.334 15.182C122.577 14.5753 122.918 14.048 123.356 13.6C123.804 13.1427 124.322 12.788 124.91 12.536C125.508 12.2747 126.156 12.144 126.856 12.144C127.622 12.144 128.294 12.2747 128.872 12.536C129.451 12.7973 129.964 13.152 130.412 13.6L129.502 14.51C129.194 14.1647 128.816 13.894 128.368 13.698C127.93 13.502 127.426 13.404 126.856 13.404C126.343 13.404 125.872 13.4973 125.442 13.684C125.013 13.8613 124.64 14.118 124.322 14.454C124.005 14.79 123.758 15.1867 123.58 15.644C123.412 16.1013 123.328 16.6007 123.328 17.142C123.328 17.6833 123.412 18.1827 123.58 18.64C123.758 19.0973 124.005 19.494 124.322 19.83C124.64 20.166 125.013 20.4273 125.442 20.614C125.872 20.7913 126.343 20.88 126.856 20.88C127.463 20.88 127.99 20.782 128.438 20.586C128.886 20.3807 129.264 20.1053 129.572 19.76L130.482 20.656C130.034 21.1227 129.507 21.4867 128.9 21.748C128.303 22.0093 127.626 22.14 126.87 22.14ZM134.273 22.14C133.619 22.14 133.031 21.986 132.509 21.678C131.986 21.37 131.571 20.9547 131.263 20.432C130.955 19.9 130.801 19.3073 130.801 18.654C130.801 18.01 130.955 17.4313 131.263 16.918C131.571 16.3953 131.986 15.98 132.509 15.672C133.031 15.364 133.619 15.21 134.273 15.21C134.917 15.21 135.5 15.364 136.023 15.672C136.555 15.9707 136.975 16.3813 137.283 16.904C137.591 17.4267 137.745 18.01 137.745 18.654C137.745 19.3073 137.591 19.9 137.283 20.432C136.975 20.9547 136.555 21.37 136.023 21.678C135.5 21.986 134.917 22.14 134.273 22.14ZM134.273 20.922C134.693 20.922 135.066 20.824 135.393 20.628C135.719 20.432 135.976 20.166 136.163 19.83C136.349 19.4847 136.443 19.0927 136.443 18.654C136.443 18.2247 136.345 17.842 136.149 17.506C135.962 17.17 135.705 16.9087 135.379 16.722C135.061 16.526 134.693 16.428 134.273 16.428C133.853 16.428 133.479 16.526 133.153 16.722C132.826 16.9087 132.569 17.17 132.383 17.506C132.196 17.842 132.103 18.2247 132.103 18.654C132.103 19.0927 132.196 19.4847 132.383 19.83C132.569 20.166 132.826 20.432 133.153 20.628C133.479 20.824 133.853 20.922 134.273 20.922ZM143.46 22V18.122C143.46 17.618 143.302 17.2027 142.984 16.876C142.667 16.5493 142.256 16.386 141.752 16.386C141.416 16.386 141.118 16.4607 140.856 16.61C140.595 16.7593 140.39 16.9647 140.24 17.226C140.091 17.4873 140.016 17.786 140.016 18.122L139.498 17.828C139.498 17.324 139.61 16.876 139.834 16.484C140.058 16.092 140.371 15.784 140.772 15.56C141.174 15.3267 141.626 15.21 142.13 15.21C142.634 15.21 143.078 15.336 143.46 15.588C143.852 15.84 144.16 16.1713 144.384 16.582C144.608 16.9833 144.72 17.4127 144.72 17.87V22H143.46ZM138.756 22V15.35H140.016V22H138.756ZM150.722 22V18.122C150.722 17.618 150.564 17.2027 150.246 16.876C149.929 16.5493 149.518 16.386 149.014 16.386C148.678 16.386 148.38 16.4607 148.118 16.61C147.857 16.7593 147.652 16.9647 147.502 17.226C147.353 17.4873 147.278 17.786 147.278 18.122L146.76 17.828C146.76 17.324 146.872 16.876 147.096 16.484C147.32 16.092 147.633 15.784 148.034 15.56C148.436 15.3267 148.888 15.21 149.392 15.21C149.896 15.21 150.34 15.336 150.722 15.588C151.114 15.84 151.422 16.1713 151.646 16.582C151.87 16.9833 151.982 17.4127 151.982 17.87V22H150.722ZM146.018 22V15.35H147.278V22H146.018ZM156.36 22.14C155.698 22.14 155.1 21.9907 154.568 21.692C154.036 21.384 153.616 20.9687 153.308 20.446C153 19.9233 152.846 19.3307 152.846 18.668C152.846 18.0147 152.996 17.4267 153.294 16.904C153.602 16.3813 154.013 15.9707 154.526 15.672C155.049 15.364 155.632 15.21 156.276 15.21C156.892 15.21 157.434 15.35 157.9 15.63C158.376 15.91 158.745 16.2973 159.006 16.792C159.277 17.2867 159.412 17.8467 159.412 18.472C159.412 18.5653 159.408 18.668 159.398 18.78C159.389 18.8827 159.37 19.004 159.342 19.144H153.728V18.094H158.67L158.208 18.5C158.208 18.052 158.129 17.674 157.97 17.366C157.812 17.0487 157.588 16.806 157.298 16.638C157.009 16.4607 156.659 16.372 156.248 16.372C155.819 16.372 155.441 16.4653 155.114 16.652C154.788 16.8387 154.536 17.1 154.358 17.436C154.181 17.772 154.092 18.1687 154.092 18.626C154.092 19.0927 154.186 19.5033 154.372 19.858C154.559 20.2033 154.825 20.474 155.17 20.67C155.516 20.8567 155.912 20.95 156.36 20.95C156.734 20.95 157.074 20.8847 157.382 20.754C157.7 20.6233 157.97 20.4273 158.194 20.166L159.006 20.992C158.689 21.3653 158.297 21.65 157.83 21.846C157.373 22.042 156.883 22.14 156.36 22.14ZM163.416 22.14C162.763 22.14 162.17 21.986 161.638 21.678C161.115 21.37 160.7 20.9547 160.392 20.432C160.093 19.9 159.944 19.312 159.944 18.668C159.944 18.0147 160.093 17.4267 160.392 16.904C160.7 16.3813 161.115 15.9707 161.638 15.672C162.17 15.364 162.763 15.21 163.416 15.21C163.929 15.21 164.405 15.308 164.844 15.504C165.283 15.6907 165.661 15.966 165.978 16.33L165.138 17.17C164.933 16.9273 164.681 16.7453 164.382 16.624C164.093 16.4933 163.771 16.428 163.416 16.428C162.996 16.428 162.623 16.526 162.296 16.722C161.969 16.9087 161.713 17.17 161.526 17.506C161.339 17.842 161.246 18.2293 161.246 18.668C161.246 19.1067 161.339 19.494 161.526 19.83C161.713 20.166 161.969 20.432 162.296 20.628C162.623 20.824 162.996 20.922 163.416 20.922C163.771 20.922 164.093 20.8613 164.382 20.74C164.681 20.6093 164.937 20.4227 165.152 20.18L165.978 21.02C165.67 21.3747 165.292 21.65 164.844 21.846C164.405 22.042 163.929 22.14 163.416 22.14ZM167.76 22V12.564H169.02V22H167.76ZM166.122 16.498V15.35H170.658V16.498H166.122ZM173.526 21.202L177.11 17.422C177.474 17.0487 177.759 16.7267 177.964 16.456C178.169 16.176 178.314 15.9193 178.398 15.686C178.491 15.4527 178.538 15.21 178.538 14.958C178.538 14.4633 178.379 14.076 178.062 13.796C177.745 13.516 177.334 13.376 176.83 13.376C176.335 13.376 175.901 13.4973 175.528 13.74C175.155 13.9733 174.823 14.3373 174.534 14.832L173.61 14.062C173.993 13.4273 174.455 12.9513 174.996 12.634C175.537 12.3073 176.163 12.144 176.872 12.144C177.469 12.144 177.987 12.2607 178.426 12.494C178.874 12.7273 179.219 13.054 179.462 13.474C179.705 13.894 179.826 14.384 179.826 14.944C179.826 15.3453 179.775 15.7047 179.672 16.022C179.579 16.3393 179.406 16.666 179.154 17.002C178.911 17.3287 178.571 17.7207 178.132 18.178L175.234 21.16L173.526 21.202ZM173.526 22V21.202L174.646 20.824H180.05V22H173.526ZM182.26 22.14C181.999 22.14 181.78 22.0513 181.602 21.874C181.434 21.6873 181.35 21.468 181.35 21.216C181.35 20.9547 181.434 20.74 181.602 20.572C181.78 20.3947 181.999 20.306 182.26 20.306C182.522 20.306 182.736 20.3947 182.904 20.572C183.082 20.74 183.17 20.9547 183.17 21.216C183.17 21.468 183.082 21.6873 182.904 21.874C182.736 22.0513 182.522 22.14 182.26 22.14ZM188.12 22.14C187.392 22.14 186.725 21.9347 186.118 21.524C185.521 21.1133 185.045 20.5347 184.69 19.788C184.335 19.032 184.158 18.1453 184.158 17.128C184.158 16.1107 184.331 15.2287 184.676 14.482C185.031 13.7353 185.507 13.1613 186.104 12.76C186.701 12.3493 187.359 12.144 188.078 12.144C188.815 12.144 189.483 12.3493 190.08 12.76C190.677 13.1613 191.149 13.7353 191.494 14.482C191.849 15.2287 192.026 16.1153 192.026 17.142C192.026 18.1593 191.849 19.046 191.494 19.802C191.149 20.5487 190.677 21.1273 190.08 21.538C189.492 21.9393 188.839 22.14 188.12 22.14ZM188.092 20.894C188.605 20.894 189.053 20.754 189.436 20.474C189.828 20.1847 190.136 19.76 190.36 19.2C190.584 18.64 190.696 17.9493 190.696 17.128C190.696 16.3067 190.584 15.6207 190.36 15.07C190.136 14.51 189.828 14.09 189.436 13.81C189.044 13.5207 188.591 13.376 188.078 13.376C187.574 13.376 187.126 13.5207 186.734 13.81C186.342 14.09 186.034 14.51 185.81 15.07C185.595 15.6207 185.488 16.3067 185.488 17.128C185.488 17.9493 185.595 18.64 185.81 19.2C186.034 19.76 186.342 20.1847 186.734 20.474C187.126 20.754 187.579 20.894 188.092 20.894Z" fill="#279ECC"/>
<path d="M53.1574 13.2853C53.1568 12.1971 53.3679 11.1194 53.7787 10.1139C54.1896 9.10845 54.792 8.19485 55.5516 7.42537C56.3112 6.65589 57.2131 6.04562 58.2057 5.62946C59.1983 5.2133 60.2622 4.9994 61.3364 5C62.9672 5.00909 64.5505 5.55674 65.8463 6.55987C67.142 7.563 68.0794 8.96687 68.5162 10.5585L56.844 17.3983C57.4126 18.0394 58.1061 18.5544 58.8808 18.9107C59.6555 19.267 60.4947 19.4569 61.3454 19.4685C62.1994 19.4927 63.0488 19.3328 63.8372 18.9995C64.6256 18.6662 65.3352 18.1671 65.9188 17.5351L67.4763 18.9532C65.8378 20.914 63.254 21.6253 61.3454 21.6253C60.2664 21.6253 59.1979 21.4093 58.2015 20.9896C57.2052 20.5699 56.3005 19.9549 55.5396 19.1798C54.7787 18.4048 54.1765 17.485 53.7677 16.4734C53.3588 15.4618 53.1514 14.3784 53.1574 13.2853ZM66.0179 9.71491C65.5172 8.9199 64.8244 8.26762 64.0051 7.81993C63.1858 7.37225 62.2672 7.144 61.3364 7.15683C60.3412 7.15595 59.3611 7.40378 58.4831 7.87838C57.605 8.35298 56.8561 9.03968 56.3027 9.87761C55.7493 10.7155 55.4086 11.6788 55.3106 12.6821C55.2127 13.6853 55.3605 14.6976 55.7412 15.6291L66.0179 9.71491Z" fill="#231F20"/>
<path d="M73.8506 21.6253H71.6719V10.5585C71.6731 9.08465 72.2516 7.67154 73.2804 6.62938C74.3092 5.58722 75.7042 5.00121 77.1591 5H78.6356V7.17962H77.1591C76.2813 7.19388 75.4439 7.55529 74.8257 8.18665C74.2075 8.81801 73.8575 9.66925 73.8506 10.5585V21.6253Z" fill="#231F20"/>
<path d="M42.2644 21.6251C40.6416 21.6368 39.0519 21.1608 37.6961 20.2573C36.3404 19.3539 35.2795 18.0635 34.6476 16.5494C34.0158 15.0352 33.8412 13.3653 34.1462 11.7507C34.4511 10.1361 35.2217 8.64936 36.3607 7.47839C37.4997 6.30742 38.9558 5.50484 40.545 5.17209C42.1342 4.83933 43.7851 4.99136 45.2891 5.60895C46.793 6.22654 48.0824 7.28197 48.9942 8.64179C49.906 10.0016 50.3994 11.6048 50.4119 13.2486V21.616L42.2644 21.6251ZM48.2872 13.2486C48.2748 12.037 47.9083 10.8564 47.2341 9.85557C46.56 8.85476 45.6082 8.07867 44.4991 7.62522C43.3899 7.17176 42.173 7.06126 41.0019 7.30766C39.8308 7.55406 38.758 8.14632 37.9189 9.00971C37.0797 9.8731 36.5118 10.9689 36.2868 12.1589C36.0619 13.3489 36.1899 14.5798 36.6547 15.6961C37.1196 16.8125 37.9005 17.7644 38.8988 18.4317C39.8972 19.0989 41.0683 19.4517 42.2644 19.4455C43.0623 19.4419 43.8516 19.2785 44.5869 18.9646C45.3223 18.6508 45.989 18.1927 46.5488 17.6167C47.1086 17.0407 47.5504 16.3582 47.8488 15.6086C48.1472 14.8589 48.2962 14.0568 48.2872 13.2486Z" fill="#231F20"/>
<path d="M80.0137 26.4449C80.0137 22.8472 81.7917 20.9138 85.4739 20.9138H89.2686C91.4743 20.9138 92.5501 19.6325 92.5501 17.5623V16.4999C91.4446 17.5235 90.0254 18.1312 88.5303 18.2211C87.0352 18.311 85.5549 17.8777 84.3377 16.9937C83.1204 16.1097 82.24 14.8288 81.8441 13.3655C81.4481 11.9023 81.5606 10.3456 82.1628 8.95644C82.7649 7.56723 83.8201 6.42986 85.1515 5.7349C86.4829 5.03995 88.0096 4.82963 89.4759 5.13919C90.9422 5.44875 92.2588 6.25938 93.2053 7.43525C94.1518 8.61112 94.6706 10.0808 94.6748 11.598V17.5623C94.6748 21.16 92.9012 23.0934 89.1876 23.0934H85.4784C83.3807 23.0934 82.1699 24.3748 82.1699 26.4449V27.9999H80.0182L80.0137 26.4449ZM88.1792 16.0667C89.0467 16.0586 89.8924 15.7908 90.61 15.297C91.3276 14.8031 91.885 14.1054 92.2121 13.2914C92.5391 12.4775 92.6212 11.5838 92.4481 10.7227C92.2749 9.86159 91.8543 9.0716 91.239 8.45211C90.6237 7.83262 89.8413 7.41131 88.9902 7.24117C88.1391 7.07103 87.2573 7.15967 86.4558 7.49594C85.6544 7.83221 84.9689 8.40108 84.4859 9.13098C84.0028 9.86089 83.7436 10.7192 83.7409 11.598C83.7527 12.7842 84.2249 13.918 85.0555 14.7542C85.8861 15.5905 87.0082 16.0619 88.1792 16.0667Z" fill="#231F20"/>
<path d="M97.2082 13.2852C97.2136 11.641 97.7002 10.0352 98.6065 8.67115C99.5129 7.30707 100.798 6.24591 102.3 5.62189C103.802 4.99787 105.452 4.83903 107.043 5.16546C108.634 5.49188 110.094 6.2889 111.237 7.45572C112.381 8.62254 113.158 10.1067 113.468 11.7206C113.779 13.3344 113.611 15.0054 112.984 16.5222C112.357 18.0389 111.301 19.3334 109.948 20.2417C108.595 21.1501 107.006 21.6315 105.383 21.6252C104.304 21.6253 103.237 21.4091 102.241 20.9893C101.245 20.5694 100.342 19.9542 99.5817 19.179C98.8219 18.4037 98.2209 17.4839 97.8136 16.4723C97.4062 15.4608 97.2005 14.3776 97.2082 13.2852ZM111.491 13.2852C111.487 12.069 111.127 10.8813 110.457 9.87179C109.787 8.86232 108.838 8.07627 107.728 7.6127C106.618 7.14913 105.397 7.0288 104.22 7.26685C103.042 7.50491 101.961 8.09072 101.111 8.95044C100.262 9.81015 99.6828 10.9053 99.4469 12.0979C99.2111 13.2904 99.329 14.5271 99.7858 15.6519C100.243 16.7767 101.018 17.7393 102.014 18.4185C103.01 19.0977 104.182 19.463 105.383 19.4684C107.002 19.4684 108.555 18.8171 109.701 17.6577C110.846 16.4982 111.49 14.9255 111.491 13.2852Z" fill="#231F20"/>
<path d="M97.209 13.2853C97.2084 12.1975 97.4194 11.1202 97.8299 10.115C98.2405 9.1098 98.8425 8.1964 99.6017 7.42698C100.361 6.65756 101.262 6.0472 102.254 5.63077C103.246 5.21434 104.31 5 105.384 5V7.15682C103.781 7.16402 102.247 7.81201 101.113 8.95976C99.9804 10.1075 99.3408 11.6621 99.3337 13.2853H97.209Z" fill="#E30A7D"/>
<path d="M94.6742 11.5977C94.6742 11.5977 94.6742 14.5479 92.5496 16.4995C91.3543 17.6031 89.796 18.2159 88.1787 18.2186V16.0663C89.344 16.0591 90.4591 15.5851 91.2806 14.7478C92.1021 13.9106 92.5631 12.7781 92.5631 11.5977H94.6742Z" fill="#259ECC"/>
<path d="M1.11389 22.8905C1.72907 22.8905 2.22778 22.3853 2.22778 21.7621C2.22778 21.139 1.72907 20.6338 1.11389 20.6338C0.498705 20.6338 0 21.139 0 21.7621C0 22.3853 0.498705 22.8905 1.11389 22.8905Z" fill="#259ECC"/>
<path d="M27.8531 7.52526C28.4683 7.52526 28.967 7.02008 28.967 6.39691C28.967 5.77374 28.4683 5.26855 27.8531 5.26855C27.238 5.26855 26.7393 5.77374 26.7393 6.39691C26.7393 7.02008 27.238 7.52526 27.8531 7.52526Z" fill="#E30A7D"/>
<path d="M27.4048 1.50864C27.2672 1.36902 27.1038 1.25825 26.9239 1.18268C26.744 1.1071 26.5511 1.0682 26.3564 1.0682C26.1616 1.0682 25.9688 1.1071 25.7889 1.18268C25.6089 1.25825 25.4455 1.36902 25.3079 1.50864L23.1024 3.73997L21.0111 5.86127C20.7324 6.14274 20.3548 6.3008 19.9613 6.3008C19.5677 6.3008 19.1901 6.14274 18.9114 5.86127C18.6335 5.57891 18.4775 5.19649 18.4775 4.7978C18.4775 4.39911 18.6335 4.01669 18.9114 3.73433L20.0671 2.56366C20.2049 2.42427 20.3143 2.25872 20.3889 2.07648C20.4635 1.89424 20.5019 1.69888 20.5019 1.50159C20.5019 1.3043 20.4635 1.10895 20.3889 0.926706C20.3143 0.744465 20.2049 0.578911 20.0671 0.439524C19.7883 0.158053 19.4108 0 19.0172 0C18.6237 0 18.2461 0.158053 17.9674 0.439524L3.27241 15.3254C2.99455 15.6077 2.83852 15.9901 2.83852 16.3888C2.83852 16.7875 2.99455 17.17 3.27241 17.4523C3.55115 17.7338 3.92867 17.8918 4.32225 17.8918C4.71583 17.8918 5.09335 17.7338 5.37209 17.4523L6.9928 15.8077C7.27154 15.5263 7.64906 15.3682 8.04264 15.3682C8.43621 15.3682 8.81374 15.5263 9.09248 15.8077C9.37034 16.0901 9.52637 16.4725 9.52637 16.8712C9.52637 17.2699 9.37034 17.6523 9.09248 17.9347L1.70183 25.4326C1.56357 25.572 1.45387 25.7378 1.37902 25.9203C1.30416 26.1028 1.26562 26.2984 1.26562 26.4961C1.26562 26.6937 1.30416 26.8894 1.37902 27.0719C1.45387 27.2544 1.56357 27.4201 1.70183 27.5595C1.83943 27.6992 2.00286 27.8099 2.18276 27.8855C2.36267 27.9611 2.55552 28 2.75028 28C2.94504 28 3.13788 27.9611 3.31779 27.8855C3.49769 27.8099 3.66112 27.6992 3.79872 27.5595L6.28826 25.0377C6.567 24.7562 6.94452 24.5981 7.3381 24.5981C7.73168 24.5981 8.10921 24.7562 8.38795 25.0377C8.66669 25.3191 9.04421 25.4772 9.43778 25.4772C9.83136 25.4772 10.2089 25.3191 10.4876 25.0377L12.6848 22.8092C12.9635 22.5277 13.341 22.3696 13.7346 22.3696C14.1282 22.3696 14.5057 22.5277 14.7845 22.8092C14.9221 22.9492 15.0857 23.0603 15.2659 23.1362C15.446 23.212 15.6392 23.251 15.8343 23.251C16.0294 23.251 16.2226 23.212 16.4027 23.1362C16.5829 23.0603 16.7465 22.9492 16.8841 22.8092L27.3213 12.228C27.4595 12.0886 27.5692 11.9229 27.6441 11.7404C27.7189 11.5579 27.7575 11.3622 27.7575 11.1645C27.7575 10.9669 27.7189 10.7712 27.6441 10.5887C27.5692 10.4062 27.4595 10.2405 27.3213 10.1011C27.1837 9.96144 27.0202 9.85068 26.8403 9.7751C26.6604 9.69952 26.4676 9.66062 26.2728 9.66062C26.0781 9.66062 25.8852 9.69952 25.7053 9.7751C25.5254 9.85068 25.362 9.96144 25.2244 10.1011L25.1158 10.2111L23.6454 11.6921C23.508 11.832 23.3447 11.9431 23.1647 12.0189C22.9848 12.0947 22.7919 12.1337 22.597 12.1337C22.4021 12.1337 22.2092 12.0947 22.0293 12.0189C21.8493 11.9431 21.686 11.832 21.5485 11.6921C21.4107 11.5527 21.3014 11.3871 21.2268 11.2049C21.1521 11.0226 21.1137 10.8273 21.1137 10.63C21.1137 10.4327 21.1521 10.2373 21.2268 10.0551C21.3014 9.87286 21.4107 9.70731 21.5485 9.56792L23.3753 7.71742L27.4048 3.63277C27.6818 3.35053 27.8373 2.96871 27.8373 2.57071C27.8373 2.17271 27.6818 1.79088 27.4048 1.50864Z" fill="url(#paint0_linear_557_11790)"/>
<defs>
<linearGradient id="paint0_linear_557_11790" x1="-3.05522" y1="18.3582" x2="35.1572" y2="6.70616" gradientUnits="userSpaceOnUse">
<stop offset="0.2" stop-color="#279ECC"/>
<stop offset="0.81" stop-color="#E4097D"/>
</linearGradient>
</defs>
</svg>
