<svg width="18" height="18" viewBox="0 0 18 18" fill="none" xmlns="http://www.w3.org/2000/svg">
<path d="M8.92071 9.08069C9.27848 9.43845 9.84307 9.45929 10.1754 9.12699L15.1356 4.16672L16.3 5.33108C16.5927 5.62379 17.0621 5.44064 17.0412 5.0452L16.912 1.54472C16.9028 1.29379 16.7011 1.09214 16.4502 1.08288L12.9497 0.95369C12.5608 0.939336 12.3776 1.4087 12.6703 1.70141L13.8347 2.86577L8.87441 7.82604C8.54212 8.15833 8.56295 8.72293 8.92071 9.08069Z" fill="#279ECC"/>
<path d="M10.2903 2.7457C10.9694 2.06653 10.6942 0.927595 9.73752 0.841646C7.40271 0.631875 4.99508 1.42061 3.20785 3.20785C0.00884318 6.40685 0.00884295 11.5935 3.20785 14.7925C6.40685 17.9915 11.5935 17.9915 14.7925 14.7925C16.5794 13.0055 17.3682 10.5983 17.1588 8.26388C17.0729 7.30714 15.9339 7.03176 15.2547 7.71099C14.9639 8.00175 14.8363 8.41225 14.8486 8.82326C14.8954 10.3791 14.325 11.95 13.1375 13.1375C10.8525 15.4225 7.14779 15.4225 4.86279 13.1375C2.57779 10.8525 2.57779 7.14779 4.86279 4.86279C6.05049 3.67509 7.62175 3.10474 9.17784 3.15172C9.58892 3.16413 9.99948 3.0365 10.2903 2.7457Z" fill="#279ECC"/>
</svg>
