<svg width="66" height="66" viewBox="0 0 66 66" fill="none" xmlns="http://www.w3.org/2000/svg">
<g filter="url(#filter0_dii_855_14425)">
<path d="M33 52C46.7104 52 58 40.7104 58 27C58 13.3135 46.6865 2 32.976 2C19.2895 2 8 13.3135 8 27C8 40.7104 19.2895 52 33 52Z" fill="#279ECC"/>
</g>
<path d="M33.1351 31.3589C31.721 31.3589 30.5657 30.2295 30.5337 28.8158L30.2208 14.9983C30.1835 13.3535 31.5067 12 33.1519 12V12C34.8 12 36.1243 13.3579 36.0829 15.0055L35.7363 28.8221C35.7009 30.2333 34.5467 31.3589 33.1351 31.3589V31.3589ZM32.9984 42C32.0228 42 31.2233 41.6726 30.6 41.0177C29.9767 40.3629 29.665 39.558 29.665 38.603C29.665 37.648 29.9767 36.8431 30.6 36.1883C31.2233 35.5334 32.0228 35.206 32.9984 35.206C33.974 35.206 34.7734 35.5334 35.3967 36.1883C36.0201 36.8431 36.3317 37.648 36.3317 38.603C36.3317 39.558 36.0201 40.3629 35.3967 41.0177C34.7734 41.6726 33.974 42 32.9984 42Z" fill="white"/>
<defs>
<filter id="filter0_dii_855_14425" x="0" y="-4" width="66" height="70" filterUnits="userSpaceOnUse" color-interpolation-filters="sRGB">
<feFlood flood-opacity="0" result="BackgroundImageFix"/>
<feColorMatrix in="SourceAlpha" type="matrix" values="0 0 0 0 0 0 0 0 0 0 0 0 0 0 0 0 0 0 127 0" result="hardAlpha"/>
<feOffset dy="6"/>
<feGaussianBlur stdDeviation="4"/>
<feComposite in2="hardAlpha" operator="out"/>
<feColorMatrix type="matrix" values="0 0 0 0 0 0 0 0 0 0 0 0 0 0 0 0 0 0 0.15 0"/>
<feBlend mode="normal" in2="BackgroundImageFix" result="effect1_dropShadow_855_14425"/>
<feBlend mode="normal" in="SourceGraphic" in2="effect1_dropShadow_855_14425" result="shape"/>
<feColorMatrix in="SourceAlpha" type="matrix" values="0 0 0 0 0 0 0 0 0 0 0 0 0 0 0 0 0 0 127 0" result="hardAlpha"/>
<feOffset dx="-2" dy="-6"/>
<feGaussianBlur stdDeviation="3"/>
<feComposite in2="hardAlpha" operator="arithmetic" k2="-1" k3="1"/>
<feColorMatrix type="matrix" values="0 0 0 0 0.167326 0 0 0 0 0.5081 0 0 0 0 0.658333 0 0 0 0.5 0"/>
<feBlend mode="normal" in2="shape" result="effect2_innerShadow_855_14425"/>
<feColorMatrix in="SourceAlpha" type="matrix" values="0 0 0 0 0 0 0 0 0 0 0 0 0 0 0 0 0 0 127 0" result="hardAlpha"/>
<feOffset dx="1" dy="1"/>
<feGaussianBlur stdDeviation="2"/>
<feComposite in2="hardAlpha" operator="arithmetic" k2="-1" k3="1"/>
<feColorMatrix type="matrix" values="0 0 0 0 1 0 0 0 0 1 0 0 0 0 1 0 0 0 0.48 0"/>
<feBlend mode="normal" in2="effect2_innerShadow_855_14425" result="effect3_innerShadow_855_14425"/>
</filter>
</defs>
</svg>
