<svg width="16" height="16" viewBox="0 0 16 16" fill="none" xmlns="http://www.w3.org/2000/svg">
<path d="M13.6476 2.35249C12.0159 0.72279 9.70357 -0.217038 7.16098 0.0429141C3.48722 0.412847 0.464138 3.3923 0.0537188 7.06163C-0.496843 11.9107 3.25699 16 7.99182 16C11.1851 16 13.9279 14.1303 15.2092 11.4408C15.5295 10.771 15.049 10.0011 14.3083 10.0011C13.9379 10.0011 13.5875 10.2011 13.4274 10.531C12.2962 12.9606 9.58345 14.5003 6.62042 13.8404C4.39815 13.3505 2.60633 11.5408 2.13584 9.32122C1.29499 5.44193 4.248 2.00256 7.99182 2.00256C9.65352 2.00256 11.135 2.69243 12.2161 3.78223L10.7046 5.29196C10.0739 5.92184 10.5144 7.00164 11.4053 7.00164H14.999C15.5495 7.00164 16 6.55173 16 6.00183V2.41248C16 1.52264 14.9189 1.07273 14.2883 1.70261L13.6476 2.35249Z" fill="#231F20"/>
</svg>
