<svg width="20" height="16" viewBox="0 0 20 16" fill="none" xmlns="http://www.w3.org/2000/svg">
<path d="M10 3.17162C12.5091 3.17162 14.5455 5.12742 14.5455 7.53724C14.5455 7.98254 14.4545 8.41037 14.3273 8.81201L17.1091 11.4838C18.3727 10.4098 19.3727 9.06521 20 7.52851C18.4273 3.70423 14.5455 0.988813 10 0.988813C8.84545 0.988813 7.73636 1.16344 6.69091 1.48649L8.66364 3.38117C9.09091 3.25894 9.53636 3.17162 10 3.17162ZM1.55455 0.255389C1.2 0.595907 1.2 1.14598 1.55455 1.48649L3.34545 3.20655C1.87273 4.33288 0.7 5.81719 0 7.53724C1.57273 11.3703 5.45455 14.0857 10 14.0857C11.3818 14.0857 12.7 13.8237 13.9182 13.3697L16.3909 15.7446C16.7455 16.0851 17.3182 16.0851 17.6727 15.7446C18.0273 15.4041 18.0273 14.854 17.6727 14.5135L2.84545 0.255389C2.49091 -0.0851296 1.90909 -0.0851296 1.55455 0.255389ZM10 11.9029C7.49091 11.9029 5.45455 9.94707 5.45455 7.53724C5.45455 6.86494 5.61818 6.22756 5.9 5.66876L7.32727 7.03956C7.3 7.19673 7.27273 7.36262 7.27273 7.53724C7.27273 8.98663 8.49091 10.1566 10 10.1566C10.1818 10.1566 10.3455 10.1304 10.5182 10.0955L11.9455 11.4663C11.3545 11.7457 10.7 11.9029 10 11.9029ZM12.7 7.24911C12.5636 6.02674 11.5636 5.07503 10.3 4.94407L12.7 7.24911Z" fill="#686767"/>
</svg>
